<?xml version="1.0" encoding="UTF-8" standalone="no"?>
<!-- Created with Inkscape (http://www.inkscape.org/) -->

<svg
   xmlns:dc="http://purl.org/dc/elements/1.1/"
   xmlns:cc="http://creativecommons.org/ns#"
   xmlns:rdf="http://www.w3.org/1999/02/22-rdf-syntax-ns#"
   xmlns:svg="http://www.w3.org/2000/svg"
   xmlns="http://www.w3.org/2000/svg"
   xmlns:sodipodi="http://sodipodi.sourceforge.net/DTD/sodipodi-0.dtd"
   xmlns:inkscape="http://www.inkscape.org/namespaces/inkscape"
   width="210mm"
   height="297mm"
   viewBox="0 0 210 297"
   version="1.1"
   id="svg8"
   inkscape:version="0.92.3 (2405546, 2018-03-11)"
   sodipodi:docname="servo_arm_metal_gear2.svg">
  <defs
     id="defs2" />
  <sodipodi:namedview
     id="base"
     pagecolor="#ffffff"
     bordercolor="#666666"
     borderopacity="1.0"
     inkscape:pageopacity="0.0"
     inkscape:pageshadow="2"
     inkscape:zoom="0.35"
     inkscape:cx="-195.71429"
     inkscape:cy="560"
     inkscape:document-units="mm"
     inkscape:current-layer="layer1"
     showgrid="false"
     inkscape:window-width="2560"
     inkscape:window-height="1395"
     inkscape:window-x="-13"
     inkscape:window-y="-13"
     inkscape:window-maximized="1" />
  <metadata
     id="metadata5">
    <rdf:RDF>
      <cc:Work
         rdf:about="">
        <dc:format>image/svg+xml</dc:format>
        <dc:type
           rdf:resource="http://purl.org/dc/dcmitype/StillImage" />
        <dc:title></dc:title>
      </cc:Work>
    </rdf:RDF>
  </metadata>
  <g
     inkscape:label="Layer 1"
     inkscape:groupmode="layer"
     id="layer1">
    <g
       transform="matrix(0.35277777,0,0,-0.35277777,-62.455892,258.75327)"
       inkscape:label="servo_arm"
       id="g1033"
       style="fill:none;stroke:#0000ff;stroke-opacity:1;stroke-width:0.072;stroke-miterlimit:4;stroke-dasharray:none">
      <g
         transform="translate(177.5,710.2)"
         id="g1035"
         style="fill:none;stroke:#0000ff;stroke-opacity:1;stroke-width:0.072;stroke-miterlimit:4;stroke-dasharray:none">
        <path
           inkscape:connector-curvature="0"
           id="path1037"
           style="fill:none;stroke:#0000ff;stroke-width:0.072;stroke-linecap:round;stroke-linejoin:round;stroke-miterlimit:4;stroke-dasharray:none;stroke-opacity:1"
           d="m 0,0 v -21.6 m 0,0 h -61.2 m -28.1,-161.4 0.1,1.1 0.2,1 0.4,1 0.5,1 0.7,0.8 0.8,0.8 0.8,0.6 1,0.6 1,0.3 1,0.3 h 1.1 1.1 l 1,-0.3 1,-0.3 1,-0.6 0.9,-0.6 0.7,-0.8 0.7,-0.8 0.5,-1 0.4,-1 0.2,-1 0.1,-1.1 -0.1,-1.1 -0.2,-1.1 -0.4,-1 -0.5,-0.9 -0.7,-0.9 -0.7,-0.7 -0.9,-0.7 -1,-0.5 -1,-0.4 -1,-0.2 -1.1,-0.1 -1.1,0.1 -1,0.2 -1,0.4 -1,0.5 -0.8,0.7 -0.8,0.7 -0.7,0.9 -0.5,0.9 -0.4,1 -0.2,1.1 -0.1,1.1 m 4.1,77.4 0.1,0.7 0.2,0.7 0.3,0.7 0.5,0.5 0.6,0.4 0.7,0.3 0.7,0.2 h 0.8 l 0.7,-0.2 0.7,-0.3 0.6,-0.4 0.5,-0.5 0.3,-0.7 0.3,-0.7 v -0.7 -0.8 l -0.3,-0.7 -0.3,-0.6 -0.5,-0.5 -0.6,-0.5 -0.7,-0.3 -0.7,-0.1 h -0.8 l -0.7,0.1 -0.7,0.3 -0.6,0.5 -0.5,0.5 -0.3,0.6 -0.2,0.7 -0.1,0.8 m 0,-12.6 0.1,0.7 0.2,0.7 0.3,0.7 0.5,0.5 0.6,0.4 0.7,0.3 0.7,0.2 h 0.8 l 0.7,-0.2 0.7,-0.3 0.6,-0.4 0.5,-0.5 0.3,-0.7 0.3,-0.7 v -0.7 -0.8 l -0.3,-0.7 -0.3,-0.6 -0.5,-0.5 -0.6,-0.5 -0.7,-0.3 -0.7,-0.1 h -0.8 l -0.7,0.1 -0.7,0.3 -0.6,0.5 -0.5,0.5 -0.3,0.6 -0.2,0.7 -0.1,0.8 m 0,-12.6 0.1,0.7 0.2,0.7 0.3,0.7 0.5,0.5 0.6,0.4 0.7,0.3 0.7,0.2 h 0.8 l 0.7,-0.2 0.7,-0.3 0.6,-0.4 0.5,-0.5 0.3,-0.7 0.3,-0.7 v -0.7 -0.8 l -0.3,-0.7 -0.3,-0.6 -0.5,-0.5 -0.6,-0.5 -0.7,-0.3 -0.7,-0.1 h -0.8 l -0.7,0.1 -0.7,0.3 -0.6,0.5 -0.5,0.5 -0.3,0.6 -0.2,0.7 -0.1,0.8 m 0,-12.6 0.1,0.7 0.2,0.7 0.3,0.7 0.5,0.5 0.6,0.4 0.7,0.3 0.7,0.2 h 0.8 l 0.7,-0.2 0.7,-0.3 0.6,-0.4 0.5,-0.5 0.3,-0.7 0.3,-0.7 v -0.7 -0.8 l -0.3,-0.7 -0.3,-0.6 -0.5,-0.5 -0.6,-0.5 -0.7,-0.3 -0.7,-0.1 h -0.8 l -0.7,0.1 -0.7,0.3 -0.6,0.5 -0.5,0.5 -0.3,0.6 -0.2,0.7 -0.1,0.8 M -99.4,-198 h 38.2 M -99.4,0 V -198 M 0,0 h -99.4 m 38.2,-198 v 176.4" />
      </g>
      <g
         transform="translate(414.6,707.7)"
         id="g1039"
         style="fill:none;stroke:#0000ff;stroke-opacity:1;stroke-width:0.072;stroke-miterlimit:4;stroke-dasharray:none">
        <path
           inkscape:connector-curvature="0"
           id="path1041"
           style="fill:none;stroke:#0000ff;stroke-width:0.072;stroke-linecap:round;stroke-linejoin:round;stroke-miterlimit:4;stroke-dasharray:none;stroke-opacity:1"
           d="m 0,0 v -21.6 m 0,0 h -61.2 m -28.1,-161.5 0.1,1.1 0.2,1 0.4,1 0.5,1 0.7,0.9 0.7,0.7 0.9,0.7 1,0.5 1,0.4 1,0.2 1.1,0.1 1.1,-0.1 1,-0.2 1,-0.4 1,-0.5 0.9,-0.7 0.7,-0.7 0.7,-0.9 0.5,-1 0.4,-1 0.2,-1 0.1,-1.1 -0.1,-1.1 -0.2,-1 -0.4,-1 -0.5,-1 -0.7,-0.8 -0.7,-0.8 -0.9,-0.7 -1,-0.5 -1,-0.3 -1,-0.3 -1.1,-0.1 -1.1,0.1 -1,0.3 -1,0.3 -1,0.5 -0.9,0.7 -0.7,0.8 -0.7,0.8 -0.5,1 -0.4,1 -0.2,1 -0.1,1.1 m 4.1,77.4 v 0.7 l 0.3,0.7 0.3,0.7 0.5,0.5 0.6,0.5 0.7,0.3 0.7,0.1 h 0.8 l 0.7,-0.1 0.7,-0.3 0.6,-0.5 0.5,-0.5 0.3,-0.7 0.3,-0.7 v -0.7 -0.7 l -0.3,-0.7 -0.3,-0.7 -0.5,-0.5 -0.6,-0.5 -0.7,-0.3 -0.7,-0.1 h -0.8 l -0.7,0.1 -0.7,0.3 -0.6,0.5 -0.5,0.5 -0.3,0.7 -0.3,0.7 v 0.7 m 0,-12.6 v 0.7 l 0.3,0.7 0.3,0.7 0.5,0.5 0.6,0.5 0.7,0.3 0.7,0.1 h 0.8 l 0.7,-0.1 0.7,-0.3 0.6,-0.5 0.5,-0.5 0.3,-0.7 0.3,-0.7 v -0.7 -0.7 l -0.3,-0.7 -0.3,-0.7 -0.5,-0.5 -0.6,-0.5 -0.7,-0.3 -0.7,-0.1 h -0.8 l -0.7,0.1 -0.7,0.3 -0.6,0.5 -0.5,0.5 -0.3,0.7 -0.3,0.7 v 0.7 m 0,-12.6 v 0.7 l 0.3,0.7 0.3,0.7 0.5,0.5 0.6,0.5 0.7,0.3 0.7,0.1 h 0.8 l 0.7,-0.1 0.7,-0.3 0.6,-0.5 0.5,-0.5 0.3,-0.7 0.3,-0.7 v -0.7 -0.7 l -0.3,-0.7 -0.3,-0.7 -0.5,-0.5 -0.6,-0.5 -0.7,-0.3 -0.7,-0.1 h -0.8 l -0.7,0.1 -0.7,0.3 -0.6,0.5 -0.5,0.5 -0.3,0.7 -0.3,0.7 v 0.7 m 0,-12.6 v 0.7 l 0.3,0.7 0.3,0.7 0.5,0.5 0.6,0.5 0.7,0.3 0.7,0.1 h 0.8 l 0.7,-0.1 0.7,-0.3 0.6,-0.5 0.5,-0.5 0.3,-0.7 0.3,-0.7 v -0.7 -0.7 l -0.3,-0.7 -0.3,-0.7 -0.5,-0.5 -0.6,-0.5 -0.7,-0.3 -0.7,-0.1 h -0.8 l -0.7,0.1 -0.7,0.3 -0.6,0.5 -0.5,0.5 -0.3,0.7 -0.3,0.7 v 0.7 M -99.4,-198 h 38.2 M -99.4,0 V -198 M 0,0 h -99.4 m 38.2,-198 v 176.4" />
      </g>
      <g
         transform="translate(195.2,406.1)"
         id="g1043"
         style="fill:none;stroke:#0000ff;stroke-opacity:1;stroke-width:0.072;stroke-miterlimit:4;stroke-dasharray:none">
        <path
           inkscape:connector-curvature="0"
           id="path1045"
           style="fill:none;stroke:#0000ff;stroke-width:0.072;stroke-linecap:round;stroke-linejoin:round;stroke-miterlimit:4;stroke-dasharray:none;stroke-opacity:1"
           d="M 0,0 H -14 M 26,40 V 26 m 0,0 h 43.2 m 0,0 v 14 m 43.2,0 V 26 m 0,0 h 43.2 m 0,0 v 14 m 43.2,0 V 26 m 0,0 H 242 m 0,0 v 14 m 43.2,0 V 26 m 0,0 h 43.2 m 0,0 V 40 M 374.8,0 h -14.1 m 0,0 v -43.2 m 0,0 h 14.1 m 0,-43.2 h -14.1 m 0,0 v -43.2 m 0,0 h 14.1 m 0,-43.2 h -14.1 m 0,0 V -216 m 0,0 h 14.1 m 0,-43.2 h -14.1 m 0,0 v -43.2 m 0,0 h 14.1 m -46.4,-46.4 v 4.5 m 0,0 h -43.2 m 0,0 v -4.5 m -43.2,0 v 4.5 m 0,0 h -43.2 m 0,0 v -4.5 m -43.2,0 v 4.5 m 0,0 h -43.2 m 0,0 v -4.5 m -43.2,0 v 4.5 m 0,0 H 26 m 0,0 v -4.5 m -40,46.4 H 0 m 0,0 v 43.2 m 0,0 h -14 m 0,43.2 H 0 m 0,0 v 43.2 m 0,0 h -14 m 0,43.2 H 0 m 0,0 v 43.2 m 0,0 h -14 m 0,43.2 H 0 m 0,0 V 0 m 126.4,-64.4 -5.4,-3.4 -5.1,-3.7 -4.9,-4.1 -4.6,-4.3 -4.4,-4.6 -4.1,-4.9 -3.7,-5.1 -3.5,-5.3 -3.1,-5.5 -2.8,-5.7 -2.5,-5.9 -2.1,-6 -1.7,-6.1 -1.3,-6.2 -1,-6.3 -0.6,-6.3 -0.2,-6.4 0.2,-6.3 0.6,-6.3 0.9,-6.3 1.3,-6.2 1.7,-6.1 2.1,-6 2.4,-5.9 2.8,-5.7 3.1,-5.5 3.4,-5.4 3.8,-5.1 4,-4.9 4.4,-4.6 4.6,-4.4 4.9,-4 5.1,-3.8 5.3,-3.4 5.5,-3.2 5.7,-2.8 5.9,-2.4 6,-2.1 6.1,-1.7 6.2,-1.3 6.3,-1 6.3,-0.5 6.4,-0.2 6.3,0.2 6.3,0.5 6.3,1 6.2,1.3 6.1,1.7 6,2.1 5.9,2.4 5.7,2.8 5.5,3.2 5.4,3.4 5.1,3.8 4.8,4 4.7,4.4 4.3,4.6 4.1,4.9 3.7,5.1 3.5,5.4 3.1,5.5 2.8,5.7 2.4,5.9 2,6 1.7,6.1 1.3,6.2 1,6.3 0.6,6.3 0.1,6.3 -0.2,6.4 -0.6,6.3 -0.9,6.3 -1.4,6.2 -1.7,6.1 -2.1,6 -2.4,5.9 -2.8,5.7 -3.1,5.5 -3.5,5.3 -3.8,5.1 -4.1,4.9 -4.3,4.6 -4.7,4.3 -4.9,4.1 -5.1,3.7 -5.3,3.4 m 0,0 h -108 m 187.2,-90 -0.2,1.9 -0.6,1.8 -0.9,1.6 -1.3,1.4 -1.5,1.2 -1.7,0.7 -1.9,0.4 h -1.9 l -1.8,-0.4 -1.7,-0.7 -1.6,-1.2 -1.2,-1.4 -1,-1.6 -0.6,-1.8 -0.2,-1.9 0.2,-1.8 0.6,-1.8 1,-1.7 1.2,-1.4 1.6,-1.1 1.7,-0.8 1.8,-0.4 h 1.9 l 1.9,0.4 1.7,0.8 1.5,1.1 1.3,1.4 0.9,1.7 0.6,1.8 0.2,1.8 m -36.4,-87.8 -0.2,1.9 -0.5,1.8 -1,1.6 -1.3,1.4 -1.5,1.1 -1.7,0.8 -1.9,0.4 h -1.8 l -1.9,-0.4 -1.7,-0.8 -1.5,-1.1 -1.3,-1.4 -1,-1.6 -0.5,-1.8 -0.2,-1.9 0.2,-1.9 0.5,-1.8 1,-1.6 1.3,-1.4 1.5,-1.1 1.7,-0.8 1.9,-0.4 h 1.8 l 1.9,0.4 1.7,0.8 1.5,1.1 1.3,1.4 1,1.6 0.5,1.8 0.2,1.9 m -87.8,-36.4 -0.2,1.9 -0.6,1.8 -0.9,1.6 -1.3,1.4 -1.5,1.2 -1.7,0.7 -1.9,0.4 h -1.9 l -1.8,-0.4 -1.7,-0.7 -1.6,-1.2 -1.2,-1.4 -1,-1.6 -0.6,-1.8 -0.2,-1.9 0.2,-1.8 0.6,-1.8 1,-1.7 1.2,-1.4 1.6,-1.1 1.7,-0.8 1.8,-0.4 h 1.9 l 1.9,0.4 1.7,0.8 1.5,1.1 1.3,1.4 0.9,1.7 0.6,1.8 0.2,1.8 m -87.8,36.4 -0.2,1.9 -0.6,1.8 -0.9,1.6 -1.3,1.4 -1.5,1.1 -1.8,0.8 -1.8,0.4 h -1.9 l -1.8,-0.4 -1.8,-0.8 -1.5,-1.1 -1.3,-1.4 -0.9,-1.6 -0.6,-1.8 -0.2,-1.9 0.2,-1.9 0.6,-1.8 0.9,-1.6 1.3,-1.4 1.5,-1.1 1.8,-0.8 1.8,-0.4 h 1.9 l 1.8,0.4 1.8,0.8 1.5,1.1 1.3,1.4 0.9,1.6 0.6,1.8 0.2,1.9 m -36.4,87.8 -0.2,1.9 -0.6,1.8 -0.9,1.6 -1.3,1.4 -1.5,1.2 -1.7,0.7 -1.9,0.4 h -1.9 l -1.8,-0.4 -1.7,-0.7 -1.6,-1.2 -1.2,-1.4 -1,-1.6 -0.6,-1.8 -0.2,-1.9 0.2,-1.8 0.6,-1.8 1,-1.7 1.2,-1.4 1.6,-1.1 1.7,-0.8 1.8,-0.4 h 1.9 l 1.9,0.4 1.7,0.8 1.5,1.1 1.3,1.4 0.9,1.7 0.6,1.8 0.2,1.8 m 140.8,115.9 -0.2,1.1 -0.5,0.9 -0.9,0.7 -1,0.4 h -1.1 l -1,-0.4 -0.8,-0.7 -0.6,-0.9 -0.2,-1.1 0.2,-1.1 0.6,-0.9 0.8,-0.7 1,-0.4 h 1.1 l 1,0.4 0.9,0.7 0.5,0.9 0.2,1.1 m -45,0 -0.2,1.1 -0.5,0.9 -0.9,0.7 -1,0.4 h -1.1 l -1,-0.4 -0.8,-0.7 -0.6,-0.9 -0.2,-1.1 0.2,-1.1 0.6,-0.9 0.8,-0.7 1,-0.4 h 1.1 l 1,0.4 0.9,0.7 0.5,0.9 0.2,1.1 m 167.4,-310.3 h 46.4 M -14,40 V 0 M 26,40 H -14 M 374.8,-86.4 v 43.2 M 242,-348.8 h 43.2 m -129.6,0 h 43.2 m -129.6,0 h 43.2 m -126.4,0 h 40 m -40,219.2 v -43.2 m 0,-43.2 v -43.2 m 0,-43.2 v -46.4 m 0,305.6 V -86.4 M 374.8,40 h -46.4 m -43.2,0 H 242 m -43.2,0 h -43.2 m -43.2,0 H 69.2 M 374.8,0 v 40 m 0,-212.8 v 43.2 m 0,-129.6 v 43.2 m 0,-132.8 v 46.4" />
      </g>
      <g
         transform="translate(897.4,353.6)"
         id="g1047"
         style="fill:none;stroke:#0000ff;stroke-opacity:1;stroke-width:0.072;stroke-miterlimit:4;stroke-dasharray:none">
        <path
           inkscape:connector-curvature="0"
           id="path1049"
           style="fill:none;stroke:#0000ff;stroke-width:0.072;stroke-linecap:round;stroke-linejoin:round;stroke-miterlimit:4;stroke-dasharray:none;stroke-opacity:1"
           d="M 0,0 -0.1,0.8 -0.4,1.5 -0.9,2.2 -1.5,2.7 -2.2,3 -3,3.1 H -3.8 L -4.5,2.8 -5.2,2.4 -5.7,1.8 -6.1,1.2 -6.3,0.4 v -0.8 l 0.2,-0.7 0.4,-0.7 0.5,-0.6 0.7,-0.4 0.7,-0.3 H -3 l 0.8,0.1 0.7,0.4 0.6,0.5 0.5,0.6 0.3,0.7 L 0,0 M 45,0 44.9,0.8 44.6,1.5 44.1,2.2 43.5,2.7 42.8,3 42,3.1 H 41.2 L 40.5,2.8 39.8,2.4 39.3,1.8 38.9,1.2 38.7,0.4 v -0.8 l 0.2,-0.7 0.4,-0.7 0.5,-0.6 0.7,-0.4 0.7,-0.3 H 42 l 0.8,0.1 0.7,0.4 0.6,0.5 0.5,0.6 0.3,0.7 L 45,0 m 28.3,16.9 h -108 m 0,0 -3.8,-2.4 -3.8,-2.6 -3.6,-2.8 -3.5,-2.9 -3.4,-3 -3.2,-3.2 -3.1,-3.4 -3,-3.4 -2.8,-3.6 -2.6,-3.7 -2.5,-3.8 -2.3,-4 -2.1,-4 -2,-4.1 -1.7,-4.2 -1.6,-4.2 -1.5,-4.4 -1.2,-4.3 -1,-4.5 -0.8,-4.5 -0.7,-4.5 -0.4,-4.5 -0.3,-4.5 v -4.6 l 0.1,-4.5 0.4,-4.6 0.5,-4.5 0.7,-4.5 1,-4.4 1.1,-4.4 1.3,-4.4 1.5,-4.3 1.7,-4.2 1.8,-4.2 2.1,-4 2.2,-4 2.4,-3.9 2.5,-3.7 2.7,-3.7 2.9,-3.5 3,-3.4 3.2,-3.3 3.3,-3.1 3.4,-3 3.6,-2.9 3.7,-2.6 3.8,-2.5 3.8,-2.4 4,-2.2 4.1,-2 4.2,-1.8 4.2,-1.6 4.4,-1.5 4.3,-1.2 4.4,-1.1 4.5,-0.9 4.5,-0.7 4.5,-0.5 4.6,-0.3 4.5,-0.1 4.6,0.1 4.5,0.3 4.5,0.5 4.5,0.7 4.5,0.9 4.4,1.1 4.4,1.2 4.3,1.5 4.2,1.6 4.2,1.8 4.1,2 4,2.2 3.9,2.4 3.8,2.5 3.7,2.6 3.5,2.9 3.5,3 3.3,3.1 3.1,3.3 3,3.4 2.9,3.5 2.7,3.7 2.6,3.7 2.4,3.9 2.2,4 2,4 1.9,4.2 1.7,4.2 1.5,4.3 1.3,4.4 1.1,4.4 0.9,4.4 0.7,4.5 0.6,4.5 0.3,4.6 0.2,4.5 -0.1,4.6 -0.2,4.5 -0.5,4.5 -0.6,4.5 -0.9,4.5 -1,4.5 -1.2,4.3 -1.4,4.4 -1.6,4.2 -1.8,4.2 -2,4.1 -2.1,4 -2.3,4 -2.5,3.8 -2.6,3.7 -2.8,3.6 -3,3.4 -3,3.4 -3.3,3.2 -3.4,3 -3.5,2.9 -3.6,2.8 -3.7,2.6 -3.9,2.4" />
      </g>
      <g
         aria-label="SOLIDWORKS Educational Product. For Instructional Use Only."
         transform="matrix(1,0,0,-1,86.4,9.6816)"
         style="font-variant:normal;font-weight:bold;font-stretch:normal;font-size:11.86769962px;font-family:'Segoe UI';-inkscape-font-specification:'SegoeUI Bold';writing-mode:lr-tb;fill:none;fill-opacity:1;fill-rule:nonzero;stroke:#0000ff;stroke-opacity:1;stroke-width:0.072;stroke-miterlimit:4;stroke-dasharray:none"
         id="text1053">
        <path
           d="M 0.56788797,-0.31871264 V -2.1730407 q 0.50414543,0.4230186 1.09521253,0.6374253 0.5910671,0.2086119 1.1937237,0.2086119 0.3534813,0 0.6142461,-0.063743 0.2665597,-0.063743 0.440403,-0.1738433 0.179638,-0.1158955 0.2665596,-0.2665597 0.086922,-0.1564589 0.086922,-0.3360969 0,-0.2433806 -0.1390747,-0.4346082 Q 3.9868053,-2.7930816 3.7434248,-2.9553354 3.505839,-3.1175891 3.1755368,-3.2682532 2.8452346,-3.4189174 2.4627795,-3.5753763 1.4892572,-3.9810106 1.0082909,-4.5662829 0.53311932,-5.1515552 0.53311932,-5.980208 q 0,-0.6490148 0.26076488,-1.1125969 0.2607649,-0.4693767 0.7069626,-0.7707051 0.4519924,-0.3013283 1.0430595,-0.4404029 0.5910671,-0.1448694 1.2516715,-0.1448694 0.6490148,0 1.1473655,0.081127 0.5041454,0.075332 0.927164,0.2375858 v 1.7326378 Q 5.6614954,-6.5423012 5.41232,-6.6524019 5.1689395,-6.7625027 4.9081746,-6.83204 4.6474097,-6.907372 4.3866448,-6.9421407 q -0.2549701,-0.034769 -0.4867611,-0.034769 -0.3187126,0 -0.5794775,0.063743 -0.2607649,0.057948 -0.4404029,0.1680485 -0.1796381,0.1101007 -0.2781492,0.2665596 -0.098511,0.1506642 -0.098511,0.3418918 0,0.2086119 0.1101007,0.3766603 0.1101007,0.1622538 0.3129179,0.3129179 0.2028171,0.1448694 0.4925559,0.2897388 0.2897387,0.1390746 0.6548096,0.2897387 0.4983506,0.2086119 0.8923954,0.4461977 0.3998394,0.231791 0.6837834,0.5273246 0.283944,0.2955335 0.4346082,0.6779887 0.1506641,0.3766603 0.1506641,0.8808058 0,0.695373 -0.2665596,1.1705446 -0.2607649,0.46937678 -0.7127574,0.76491031 -0.4519925,0.28973876 -1.0546491,0.41722382 -0.5968618,0.12748505 -1.263261,0.12748505 -0.6837834,0 -1.3038244,-0.1158955 -0.6142462,-0.11589551 -1.06623883,-0.34768662 z"
           id="path1066"
           inkscape:connector-curvature="0"
           style="fill:none;stroke:#0000ff;stroke-opacity:1;stroke-width:0.072;stroke-miterlimit:4;stroke-dasharray:none" />
        <path
           d="m 11.119757,0.14486938 q -1.7847912,0 -2.9089776,-1.15895508 -1.1241863,-1.1647498 -1.1241863,-3.0306674 0,-1.9702236 1.1415707,-3.1871264 1.1415707,-1.2169028 3.0248722,-1.2169028 1.778996,0 2.874209,1.1647499 1.101007,1.1647498 1.101007,3.0712308 0,1.958634 -1.14157,3.1581525 -1.135776,1.19951848 -2.966925,1.19951848 z m 0.08113,-6.98270408 q -0.985111,0 -1.5645889,0.7417312 -0.5794775,0.7359364 -0.5794775,1.9528392 0,1.2342871 0.5794775,1.9528393 0.5794779,0.7185521 1.5182309,0.7185521 0.967728,0 1.535616,-0.695373 0.567888,-0.7011678 0.567888,-1.9412497 0,-1.2922349 -0.550504,-2.010787 -0.550504,-0.7185521 -1.506642,-0.7185521 z"
           id="path1068"
           inkscape:connector-curvature="0"
           style="fill:none;stroke:#0000ff;stroke-opacity:1;stroke-width:0.072;stroke-miterlimit:4;stroke-dasharray:none" />
        <path
           d="M 21.552578,0 H 16.60384 v -8.3097076 h 1.871712 v 6.7914765 h 3.077026 z"
           id="path1070"
           inkscape:connector-curvature="0"
           style="fill:none;stroke:#0000ff;stroke-opacity:1;stroke-width:0.072;stroke-miterlimit:4;stroke-dasharray:none" />
        <path
           d="m 24.539947,0 h -1.871712 v -8.3097076 h 1.871712 z"
           id="path1072"
           inkscape:connector-curvature="0"
           style="fill:none;stroke:#0000ff;stroke-opacity:1;stroke-width:0.072;stroke-miterlimit:4;stroke-dasharray:none" />
        <path
           d="m 26.430295,0 v -8.3097076 h 2.943746 q 4.427208,0 4.427208,4.0505478 0,1.9412497 -1.211108,3.1002048 Q 31.384828,0 29.374041,0 Z m 1.871712,-6.7856818 v 5.2674507 h 0.927164 q 1.216903,0 1.906481,-0.7301417 0.695373,-0.7301417 0.695373,-1.9876079 0,-1.1879289 -0.689578,-1.8659176 -0.683783,-0.6837835 -1.923865,-0.6837835 z"
           id="path1074"
           inkscape:connector-curvature="0"
           style="fill:none;stroke:#0000ff;stroke-opacity:1;stroke-width:0.072;stroke-miterlimit:4;stroke-dasharray:none" />
        <path
           d="M 46.047789,-8.3097076 43.85157,0 H 41.77704 L 40.397884,-5.3311932 Q 40.287783,-5.748417 40.264604,-6.264152 h -0.02318 q -0.05215,0.567888 -0.150664,0.9329588 L 38.676835,0 h -2.161451 l -2.18463,-8.3097076 h 2.045556 l 1.170544,5.5340103 q 0.07533,0.3534813 0.110101,0.9503431 h 0.03477 q 0.02318,-0.4461977 0.168048,-0.9735222 l 1.506642,-5.5108312 h 2.004992 l 1.361772,5.5803685 q 0.07533,0.3071231 0.13328,0.8923954 h 0.02318 q 0.02318,-0.4577873 0.12169,-0.9271641 l 1.147366,-5.5455998 z"
           id="path1076"
           inkscape:connector-curvature="0"
           style="fill:none;stroke:#0000ff;stroke-opacity:1;stroke-width:0.072;stroke-miterlimit:4;stroke-dasharray:none" />
        <path
           d="m 50.615461,0.14486938 q -1.784791,0 -2.908977,-1.15895508 -1.124186,-1.1647498 -1.124186,-3.0306674 0,-1.9702236 1.14157,-3.1871264 1.141571,-1.2169028 3.024873,-1.2169028 1.778996,0 2.874209,1.1647499 1.101007,1.1647498 1.101007,3.0712308 0,1.958634 -1.141571,3.1581525 -1.135776,1.19951848 -2.966925,1.19951848 z m 0.08113,-6.98270408 q -0.985112,0 -1.564589,0.7417312 -0.579478,0.7359364 -0.579478,1.9528392 0,1.2342871 0.579478,1.9528393 0.579477,0.7185521 1.518231,0.7185521 0.967727,0 1.535615,-0.695373 0.567888,-0.7011678 0.567888,-1.9412497 0,-1.2922349 -0.550503,-2.010787 -0.550504,-0.7185521 -1.506642,-0.7185521 z"
           id="path1078"
           inkscape:connector-curvature="0"
           style="fill:none;stroke:#0000ff;stroke-opacity:1;stroke-width:0.072;stroke-miterlimit:4;stroke-dasharray:none" />
        <path
           d="m 63.070658,0 h -2.149861 l -1.292235,-2.1382721 q -0.14487,-0.2433805 -0.27815,-0.4346081 -0.133279,-0.1912276 -0.272354,-0.3245074 -0.13328,-0.1390746 -0.283944,-0.2086119 -0.144869,-0.075332 -0.318713,-0.075332 H 57.971256 V 0 h -1.871712 v -8.3097076 h 2.966924 q 3.024873,0 3.024873,2.2599623 0,0.4346081 -0.13328,0.8054737 -0.13328,0.3650709 -0.37666,0.6606044 -0.243381,0.2955335 -0.591067,0.5099402 -0.341892,0.2144067 -0.76491,0.336097 v 0.023179 q 0.185432,0.057948 0.359276,0.1912276 0.173843,0.127485 0.336097,0.3013283 0.162253,0.1738432 0.307123,0.3766604 0.150664,0.1970223 0.272354,0.3882499 z m -5.099402,-6.907372 v 2.3121153 h 0.811268 q 0.602657,0 0.967728,-0.3476866 0.370866,-0.3534812 0.370866,-0.875011 0,-1.0894177 -1.303825,-1.0894177 z"
           id="path1080"
           inkscape:connector-curvature="0"
           style="fill:none;stroke:#0000ff;stroke-opacity:1;stroke-width:0.072;stroke-miterlimit:4;stroke-dasharray:none" />
        <path
           d="m 70.756527,0 h -2.364269 l -2.422216,-3.610145 q -0.06954,-0.1043059 -0.220201,-0.4577872 h -0.02897 V 0 h -1.871713 v -8.3097076 h 1.871713 v 3.9288575 h 0.02897 q 0.06954,-0.1622537 0.231791,-0.463582 l 2.294731,-3.4652755 h 2.230988 l -2.897387,3.9636262 z"
           id="path1082"
           inkscape:connector-curvature="0"
           style="fill:none;stroke:#0000ff;stroke-opacity:1;stroke-width:0.072;stroke-miterlimit:4;stroke-dasharray:none" />
        <path
           d="M 71.168832,-0.31871264 V -2.1730407 q 0.504146,0.4230186 1.095213,0.6374253 0.591067,0.2086119 1.193724,0.2086119 0.353481,0 0.614246,-0.063743 0.26656,-0.063743 0.440403,-0.1738433 0.179638,-0.1158955 0.266559,-0.2665597 0.08692,-0.1564589 0.08692,-0.3360969 0,-0.2433806 -0.139075,-0.4346082 -0.139074,-0.1912275 -0.382455,-0.3534813 -0.237585,-0.1622537 -0.567888,-0.3129178 -0.330302,-0.1506642 -0.712757,-0.3071231 -0.973522,-0.4056343 -1.454489,-0.9909066 -0.475171,-0.5852723 -0.475171,-1.4139251 0,-0.6490148 0.260765,-1.1125969 0.260765,-0.4693767 0.706962,-0.7707051 0.451993,-0.3013283 1.04306,-0.4404029 0.591067,-0.1448694 1.251671,-0.1448694 0.649015,0 1.147366,0.081127 0.504145,0.075332 0.927164,0.2375858 v 1.7326378 q -0.20861,-0.144869 -0.457785,-0.2549697 -0.243381,-0.1101008 -0.504146,-0.1796381 -0.260765,-0.075332 -0.52153,-0.1101007 -0.25497,-0.034769 -0.486761,-0.034769 -0.318712,0 -0.579477,0.063743 -0.260765,0.057948 -0.440403,0.1680485 -0.179638,0.1101007 -0.278149,0.2665596 -0.09851,0.1506642 -0.09851,0.3418918 0,0.2086119 0.110101,0.3766603 0.110101,0.1622538 0.312918,0.3129179 0.202817,0.1448694 0.492556,0.2897388 0.289739,0.1390746 0.654809,0.2897387 0.498351,0.2086119 0.892396,0.4461977 0.399839,0.231791 0.683783,0.5273246 0.283944,0.2955335 0.434608,0.6779887 0.150665,0.3766603 0.150665,0.8808058 0,0.695373 -0.26656,1.1705446 -0.260765,0.46937678 -0.712757,0.76491031 -0.451993,0.28973876 -1.054649,0.41722382 -0.596862,0.12748505 -1.263261,0.12748505 -0.683784,0 -1.303825,-0.1158955 -0.614246,-0.11589551 -1.066239,-0.34768652 z"
           id="path1084"
           inkscape:connector-curvature="0"
           style="fill:none;stroke:#0000ff;stroke-opacity:1;stroke-width:0.072;stroke-miterlimit:4;stroke-dasharray:none" />
        <path
           d="m 86.46806,0 h -4.983507 v -8.3097076 h 4.792279 v 1.5240258 h -2.920566 v 1.8485333 h 2.717749 v 1.5182311 h -2.717749 v 1.9006863 h 3.111794 z"
           id="path1086"
           inkscape:connector-curvature="0"
           style="fill:none;stroke:#0000ff;stroke-opacity:1;stroke-width:0.072;stroke-miterlimit:4;stroke-dasharray:none" />
        <path
           d="m 93.424902,0 h -1.831149 v -0.8170633 h -0.02318 q -0.625836,0.96193268 -1.836944,0.96193268 -1.112597,0 -1.790586,-0.78229465 -0.677988,-0.78808943 -0.677988,-2.19621983 0,-1.4718729 0.747526,-2.3584735 0.747526,-0.8866006 1.958634,-0.8866006 1.147365,0 1.599358,0.8228581 h 0.02318 v -3.5290181 h 1.831149 z m -1.796381,-2.8857981 v -0.4461976 q 0,-0.5794776 -0.336097,-0.9619327 -0.336097,-0.3824552 -0.875011,-0.3824552 -0.608451,0 -0.950343,0.4809664 -0.341892,0.4751715 -0.341892,1.3096191 0,0.7822947 0.330303,1.2053133 0.330302,0.4230186 0.915574,0.4230186 0.556298,0 0.903985,-0.4461977 0.353481,-0.4461977 0.353481,-1.1821342 z"
           id="path1088"
           inkscape:connector-curvature="0"
           style="fill:none;stroke:#0000ff;stroke-opacity:1;stroke-width:0.072;stroke-miterlimit:4;stroke-dasharray:none" />
        <path
           d="m 100.60295,0 h -1.825351 v -0.90398493 h -0.02897 q -0.677989,1.04885431 -1.813765,1.04885431 -2.06294,0 -2.06294,-2.49754808 v -3.5811711 h 1.825354 v 3.4189174 q 0,1.2574662 0.996702,1.2574662 0.492556,0 0.788089,-0.3418918 0.295534,-0.3476865 0.295534,-0.9387535 v -3.3957383 h 1.825347 z"
           id="path1090"
           inkscape:connector-curvature="0"
           style="fill:none;stroke:#0000ff;stroke-opacity:1;stroke-width:0.072;stroke-miterlimit:4;stroke-dasharray:none" />
        <path
           d="m 106.64134,-0.21440668 q -0.62004,0.35927606 -1.79058,0.35927606 -1.36757,0 -2.21361,-0.82865285 -0.84603,-0.82865283 -0.84603,-2.13827203 0,-1.5124364 0.90398,-2.3816526 0.90978,-0.8750111 2.42801,-0.8750111 1.04886,0 1.51823,0.2781492 v 1.5529998 q -0.57368,-0.4288134 -1.28064,-0.4288134 -0.78809,0 -1.25167,0.463582 -0.45779,0.4577873 -0.45779,1.2690558 0,0.7880894 0.4404,1.2400819 0.44041,0.4461977 1.21111,0.4461977 0.68378,0 1.33859,-0.4288134 z"
           id="path1092"
           inkscape:connector-curvature="0"
           style="fill:none;stroke:#0000ff;stroke-opacity:1;stroke-width:0.072;stroke-miterlimit:4;stroke-dasharray:none" />
        <path
           d="m 112.77824,0 h -1.73264 v -0.85183196 h -0.0232 q -0.59687,0.99670134 -1.76741,0.99670134 -0.86342,0 -1.36177,-0.48676112 -0.49256,-0.49255589 -0.49256,-1.30961916 0,-1.726843 2.04556,-1.9934027 l 1.61094,-0.2144067 q 0,-0.9735222 -1.05464,-0.9735222 -1.06045,0 -2.01659,0.6316305 v -1.3791565 q 0.38246,-0.1970224 1.04306,-0.3476865 0.6664,-0.1506642 1.21111,-0.1506642 2.53811,0 2.53811,2.5323168 z m -1.72105,-2.4106265 V -2.810466 l -1.07782,0.1390746 q -0.8924,0.1158955 -0.8924,0.8054738 0,0.3129178 0.21441,0.515735 0.2202,0.1970223 0.59106,0.1970223 0.51574,0 0.84025,-0.3534813 0.3245,-0.359276 0.3245,-0.9039849 z"
           id="path1094"
           inkscape:connector-curvature="0"
           style="fill:none;stroke:#0000ff;stroke-opacity:1;stroke-width:0.072;stroke-miterlimit:4;stroke-dasharray:none" />
        <path
           d="m 117.81289,-0.0695373 q -0.40563,0.21440668 -1.22269,0.21440668 -1.93546,0 -1.93546,-2.01078698 v -2.7177496 h -0.96193 v -1.3501826 h 0.96193 v -1.2806453 l 1.82536,-0.5215298 v 1.8021751 h 1.33279 v 1.3501826 h -1.33279 v 2.3990369 q 0,0.9271641 0.73593,0.9271641 0.28974,0 0.59686,-0.1680485 z"
           id="path1096"
           inkscape:connector-curvature="0"
           style="fill:none;stroke:#0000ff;stroke-opacity:1;stroke-width:0.072;stroke-miterlimit:4;stroke-dasharray:none" />
        <path
           d="m 119.76962,-6.8726034 q -0.46359,0 -0.75912,-0.2723544 -0.29553,-0.2781492 -0.29553,-0.6779887 0,-0.4114291 0.29553,-0.672194 0.29553,-0.2607648 0.75912,-0.2607648 0.46937,0 0.75911,0.2607648 0.29554,0.2607649 0.29554,0.672194 0,0.4172238 -0.29554,0.6837834 -0.28974,0.2665597 -0.75911,0.2665597 z M 120.6736,0 h -1.83115 v -5.9338498 h 1.83115 z"
           id="path1098"
           inkscape:connector-curvature="0"
           style="fill:none;stroke:#0000ff;stroke-opacity:1;stroke-width:0.072;stroke-miterlimit:4;stroke-dasharray:none" />
        <path
           d="m 125.04073,0.14486938 q -1.48346,0 -2.33529,-0.82865285 -0.84604,-0.83444763 -0.84604,-2.25996233 0,-1.4718729 0.88081,-2.3005258 0.8808,-0.8344476 2.38165,-0.8344476 1.47767,0 2.31791,0.8344476 0.84024,0.8286529 0.84024,2.1962198 0,1.4776677 -0.86921,2.33529445 -0.86343,0.85762673 -2.37007,0.85762673 z m 0.0464,-4.82125298 q -0.64901,0 -1.00829,0.4461977 -0.35928,0.4461977 -0.35928,1.263261 0,1.7094587 1.37916,1.7094587 1.31541,0 1.31541,-1.7558169 0,-1.6631005 -1.327,-1.6631005 z"
           id="path1100"
           inkscape:connector-curvature="0"
           style="fill:none;stroke:#0000ff;stroke-opacity:1;stroke-width:0.072;stroke-miterlimit:4;stroke-dasharray:none" />
        <path
           d="m 135.19508,0 h -1.82535 v -3.2972271 q 0,-1.3791565 -0.98511,-1.3791565 -0.47518,0 -0.7823,0.3650708 -0.30712,0.3650709 -0.30712,0.9271641 V 0 h -1.83115 v -5.9338498 h 1.83115 v 0.9387536 h 0.0232 q 0.65481,-1.083623 1.90648,-1.083623 1.97022,0 1.97022,2.4453951 z"
           id="path1102"
           inkscape:connector-curvature="0"
           style="fill:none;stroke:#0000ff;stroke-opacity:1;stroke-width:0.072;stroke-miterlimit:4;stroke-dasharray:none" />
        <path
           d="m 141.58114,0 h -1.73263 v -0.85183196 h -0.0232 q -0.59686,0.99670134 -1.76741,0.99670134 -0.86342,0 -1.36177,-0.48676112 -0.49256,-0.49255589 -0.49256,-1.30961916 0,-1.726843 2.04556,-1.9934027 l 1.61095,-0.2144067 q 0,-0.9735222 -1.05465,-0.9735222 -1.06045,0 -2.01658,0.6316305 v -1.3791565 q 0.38245,-0.1970224 1.04306,-0.3476865 0.66639,-0.1506642 1.2111,-0.1506642 2.53811,0 2.53811,2.5323168 z M 139.8601,-2.4106265 V -2.810466 l -1.07783,0.1390746 q -0.8924,0.1158955 -0.8924,0.8054738 0,0.3129178 0.21441,0.515735 0.2202,0.1970223 0.59107,0.1970223 0.51573,0 0.84024,-0.3534813 0.32451,-0.359276 0.32451,-0.9039849 z"
           id="path1104"
           inkscape:connector-curvature="0"
           style="fill:none;stroke:#0000ff;stroke-opacity:1;stroke-width:0.072;stroke-miterlimit:4;stroke-dasharray:none" />
        <path
           d="m 144.85997,0 h -1.83115 v -8.7848792 h 1.83115 z"
           id="path1106"
           inkscape:connector-curvature="0"
           style="fill:none;stroke:#0000ff;stroke-opacity:1;stroke-width:0.072;stroke-miterlimit:4;stroke-dasharray:none" />
        <path
           d="M 151.72609,-2.862619 V 0 h -1.87171 v -8.3097076 h 2.93216 q 3.14077,0 3.14077,2.6482122 0,1.2516715 -0.90399,2.0281713 -0.89819,0.7707051 -2.40483,0.7707051 z m 0,-4.0099844 v 2.5902645 h 0.73594 q 1.49505,0 1.49505,-1.3096192 0,-1.2806453 -1.49505,-1.2806453 z"
           id="path1108"
           inkscape:connector-curvature="0"
           style="fill:none;stroke:#0000ff;stroke-opacity:1;stroke-width:0.072;stroke-miterlimit:4;stroke-dasharray:none" />
        <path
           d="m 160.83241,-4.2823389 q -0.3303,-0.179638 -0.7707,-0.179638 -0.59687,0 -0.93296,0.4404029 -0.3361,0.4346081 -0.3361,1.1879289 V 0 h -1.83115 v -5.9338498 h 1.83115 v 1.1010073 h 0.0232 q 0.43461,-1.2053133 1.56459,-1.2053133 0.28974,0 0.45199,0.069537 z"
           id="path1110"
           inkscape:connector-curvature="0"
           style="fill:none;stroke:#0000ff;stroke-opacity:1;stroke-width:0.072;stroke-miterlimit:4;stroke-dasharray:none" />
        <path
           d="m 164.51269,0.14486938 q -1.48346,0 -2.33529,-0.82865285 -0.84604,-0.83444763 -0.84604,-2.25996233 0,-1.4718729 0.88081,-2.3005258 0.8808,-0.8344476 2.38165,-0.8344476 1.47767,0 2.31791,0.8344476 0.84024,0.8286529 0.84024,2.1962198 0,1.4776677 -0.86921,2.33529445 -0.86342,0.85762673 -2.37007,0.85762673 z m 0.0464,-4.82125298 q -0.64901,0 -1.00829,0.4461977 -0.35927,0.4461977 -0.35927,1.263261 0,1.7094587 1.37915,1.7094587 1.31542,0 1.31542,-1.7558169 0,-1.6631005 -1.32701,-1.6631005 z"
           id="path1112"
           inkscape:connector-curvature="0"
           style="fill:none;stroke:#0000ff;stroke-opacity:1;stroke-width:0.072;stroke-miterlimit:4;stroke-dasharray:none" />
        <path
           d="m 174.74238,0 h -1.83115 v -0.8170633 h -0.0232 q -0.62584,0.96193268 -1.83695,0.96193268 -1.1126,0 -1.79058,-0.78229465 -0.67799,-0.78808943 -0.67799,-2.19621983 0,-1.4718729 0.74752,-2.3584735 0.74753,-0.8866006 1.95864,-0.8866006 1.14736,0 1.59936,0.8228581 h 0.0232 v -3.5290181 h 1.83115 z M 172.946,-2.8857981 v -0.4461976 q 0,-0.5794776 -0.33609,-0.9619327 -0.3361,-0.3824552 -0.87501,-0.3824552 -0.60846,0 -0.95035,0.4809664 -0.34189,0.4751715 -0.34189,1.3096191 0,0.7822947 0.3303,1.2053133 0.3303,0.4230186 0.91558,0.4230186 0.5563,0 0.90398,-0.4461977 0.35348,-0.4461977 0.35348,-1.1821342 z"
           id="path1114"
           inkscape:connector-curvature="0"
           style="fill:none;stroke:#0000ff;stroke-opacity:1;stroke-width:0.072;stroke-miterlimit:4;stroke-dasharray:none" />
        <path
           d="m 181.92043,0 h -1.82535 v -0.90398493 h -0.029 q -0.67799,1.04885431 -1.81377,1.04885431 -2.06294,0 -2.06294,-2.49754808 v -3.5811711 h 1.82536 v 3.4189174 q 0,1.2574662 0.9967,1.2574662 0.49255,0 0.78809,-0.3418918 0.29553,-0.3476865 0.29553,-0.9387535 v -3.3957383 h 1.82535 z"
           id="path1116"
           inkscape:connector-curvature="0"
           style="fill:none;stroke:#0000ff;stroke-opacity:1;stroke-width:0.072;stroke-miterlimit:4;stroke-dasharray:none" />
        <path
           d="m 187.95883,-0.21440668 q -0.62004,0.35927606 -1.79059,0.35927606 -1.36757,0 -2.2136,-0.82865285 -0.84604,-0.82865283 -0.84604,-2.13827203 0,-1.5124364 0.90398,-2.3816526 0.90978,-0.8750111 2.42802,-0.8750111 1.04885,0 1.51823,0.2781492 v 1.5529998 q -0.57369,-0.4288134 -1.28065,-0.4288134 -0.78809,0 -1.25167,0.463582 -0.45779,0.4577873 -0.45779,1.2690558 0,0.7880894 0.44041,1.2400819 0.4404,0.4461977 1.2111,0.4461977 0.68379,0 1.3386,-0.4288134 z"
           id="path1118"
           inkscape:connector-curvature="0"
           style="fill:none;stroke:#0000ff;stroke-opacity:1;stroke-width:0.072;stroke-miterlimit:4;stroke-dasharray:none" />
        <path
           d="m 192.74553,-0.0695373 q -0.40563,0.21440668 -1.22269,0.21440668 -1.93546,0 -1.93546,-2.01078698 v -2.7177496 h -0.96193 v -1.3501826 h 0.96193 v -1.2806453 l 1.82536,-0.5215298 v 1.8021751 h 1.33279 v 1.3501826 h -1.33279 v 2.3990369 q 0,0.9271641 0.73593,0.9271641 0.28974,0 0.59686,-0.1680485 z"
           id="path1120"
           inkscape:connector-curvature="0"
           style="fill:none;stroke:#0000ff;stroke-opacity:1;stroke-width:0.072;stroke-miterlimit:4;stroke-dasharray:none" />
        <path
           d="m 194.59218,0.14486938 q -0.45199,0 -0.75332,-0.27814921 -0.30133,-0.27814921 -0.30133,-0.68378347 0,-0.4172238 0.30712,-0.6837835 0.31292,-0.2665596 0.7765,-0.2665596 0.46938,0 0.76491,0.2723544 0.30133,0.2665597 0.30133,0.6779887 0,0.42301859 -0.30712,0.69537302 -0.30133,0.26655966 -0.78809,0.26655966 z"
           id="path1122"
           inkscape:connector-curvature="0"
           style="fill:none;stroke:#0000ff;stroke-opacity:1;stroke-width:0.072;stroke-miterlimit:4;stroke-dasharray:none" />
        <path
           d="m 205.25024,-6.7856818 h -2.93215 v 2.0397609 h 2.69457 v 1.5182311 h -2.69457 V 0 h -1.87171 v -8.3097076 h 4.80386 z"
           id="path1124"
           inkscape:connector-curvature="0"
           style="fill:none;stroke:#0000ff;stroke-opacity:1;stroke-width:0.072;stroke-miterlimit:4;stroke-dasharray:none" />
        <path
           d="m 209.26579,0.14486938 q -1.48346,0 -2.33529,-0.82865285 -0.84604,-0.83444763 -0.84604,-2.25996233 0,-1.4718729 0.88081,-2.3005258 0.8808,-0.8344476 2.38165,-0.8344476 1.47767,0 2.31791,0.8344476 0.84024,0.8286529 0.84024,2.1962198 0,1.4776677 -0.86922,2.33529445 -0.86342,0.85762673 -2.37006,0.85762673 z m 0.0464,-4.82125298 q -0.64901,0 -1.00829,0.4461977 -0.35928,0.4461977 -0.35928,1.263261 0,1.7094587 1.37916,1.7094587 1.31541,0 1.31541,-1.7558169 0,-1.6631005 -1.327,-1.6631005 z"
           id="path1126"
           inkscape:connector-curvature="0"
           style="fill:none;stroke:#0000ff;stroke-opacity:1;stroke-width:0.072;stroke-miterlimit:4;stroke-dasharray:none" />
        <path
           d="m 217.56003,-4.2823389 q -0.33031,-0.179638 -0.77071,-0.179638 -0.59686,0 -0.93296,0.4404029 -0.33609,0.4346081 -0.33609,1.1879289 V 0 h -1.83115 v -5.9338498 h 1.83115 v 1.1010073 h 0.0232 q 0.43461,-1.2053133 1.56459,-1.2053133 0.28974,0 0.452,0.069537 z"
           id="path1128"
           inkscape:connector-curvature="0"
           style="fill:none;stroke:#0000ff;stroke-opacity:1;stroke-width:0.072;stroke-miterlimit:4;stroke-dasharray:none" />
        <path
           d="m 223.73929,0 h -1.87171 v -8.3097076 h 1.87171 z"
           id="path1130"
           inkscape:connector-curvature="0"
           style="fill:none;stroke:#0000ff;stroke-opacity:1;stroke-width:0.072;stroke-miterlimit:4;stroke-dasharray:none" />
        <path
           d="m 231.18103,0 h -1.82536 v -3.2972271 q 0,-1.3791565 -0.98511,-1.3791565 -0.47517,0 -0.78229,0.3650708 -0.30713,0.3650709 -0.30713,0.9271641 V 0 H 225.45 v -5.9338498 h 1.83114 v 0.9387536 h 0.0232 q 0.65481,-1.083623 1.90648,-1.083623 1.97023,0 1.97023,2.4453951 z"
           id="path1132"
           inkscape:connector-curvature="0"
           style="fill:none;stroke:#0000ff;stroke-opacity:1;stroke-width:0.072;stroke-miterlimit:4;stroke-dasharray:none" />
        <path
           d="M 232.24171,-0.15645893 V -1.6399214 q 0.45199,0.2723545 0.89819,0.4056343 0.45199,0.1332798 0.85183,0.1332798 0.48676,0 0.76491,-0.1332798 0.28394,-0.1332798 0.28394,-0.4056343 0,-0.1738432 -0.12748,-0.2897387 -0.12749,-0.1158955 -0.3303,-0.2028172 -0.19703,-0.086922 -0.43461,-0.1564589 -0.23759,-0.069537 -0.45779,-0.1564589 -0.35348,-0.1332799 -0.62583,-0.283944 -0.26656,-0.156459 -0.452,-0.3592761 -0.17963,-0.2028171 -0.27815,-0.4693768 -0.0927,-0.2665596 -0.0927,-0.6316305 0,-0.4983506 0.2144,-0.8576267 0.22021,-0.3592761 0.57948,-0.5852723 0.36507,-0.231791 0.82866,-0.336097 0.46937,-0.1101007 0.97352,-0.1101007 0.39404,0 0.79968,0.063743 0.40563,0.057948 0.79968,0.1738433 v 1.4139251 q -0.34769,-0.2028171 -0.74753,-0.3013283 -0.39405,-0.1043059 -0.7765,-0.1043059 -0.17964,0 -0.34189,0.034769 -0.15646,0.028974 -0.27815,0.092716 -0.12169,0.057948 -0.19123,0.156459 -0.0695,0.092716 -0.0695,0.2144066 0,0.1622538 0.10431,0.2781493 0.10431,0.1158955 0.27235,0.2028171 0.16805,0.081127 0.37087,0.1506641 0.20861,0.063743 0.41143,0.1332799 0.36507,0.127485 0.6606,0.2781492 0.29554,0.1506641 0.50415,0.3534813 0.21441,0.2028171 0.32451,0.4751715 0.11589,0.2723545 0.11589,0.6490149 0,0.5273245 -0.23179,0.90398489 -0.226,0.37086562 -0.60845,0.6084514 -0.37666,0.23179101 -0.87501,0.33609696 -0.49256,0.11010073 -1.02568,0.11010073 -0.97931,0 -1.81376,-0.30132831 z"
           id="path1134"
           inkscape:connector-curvature="0"
           style="fill:none;stroke:#0000ff;stroke-opacity:1;stroke-width:0.072;stroke-miterlimit:4;stroke-dasharray:none" />
        <path
           d="m 241.43871,-0.0695373 q -0.40563,0.21440668 -1.2227,0.21440668 -1.93545,0 -1.93545,-2.01078698 v -2.7177496 h -0.96193 v -1.3501826 h 0.96193 v -1.2806453 l 1.82535,-0.5215298 v 1.8021751 h 1.3328 v 1.3501826 h -1.3328 v 2.3990369 q 0,0.9271641 0.73594,0.9271641 0.28974,0 0.59686,-0.1680485 z"
           id="path1136"
           inkscape:connector-curvature="0"
           style="fill:none;stroke:#0000ff;stroke-opacity:1;stroke-width:0.072;stroke-miterlimit:4;stroke-dasharray:none" />
        <path
           d="m 246.33919,-4.2823389 q -0.33031,-0.179638 -0.77071,-0.179638 -0.59686,0 -0.93296,0.4404029 -0.3361,0.4346081 -0.3361,1.1879289 V 0 h -1.83114 v -5.9338498 h 1.83114 v 1.1010073 h 0.0232 q 0.43461,-1.2053133 1.56459,-1.2053133 0.28974,0 0.452,0.069537 z"
           id="path1138"
           inkscape:connector-curvature="0"
           style="fill:none;stroke:#0000ff;stroke-opacity:1;stroke-width:0.072;stroke-miterlimit:4;stroke-dasharray:none" />
        <path
           d="m 252.82995,0 h -1.82535 v -0.90398493 h -0.029 q -0.67799,1.04885431 -1.81376,1.04885431 -2.06294,0 -2.06294,-2.49754808 v -3.5811711 h 1.82535 v 3.4189174 q 0,1.2574662 0.9967,1.2574662 0.49256,0 0.78809,-0.3418918 0.29554,-0.3476865 0.29554,-0.9387535 v -3.3957383 h 1.82535 z"
           id="path1140"
           inkscape:connector-curvature="0"
           style="fill:none;stroke:#0000ff;stroke-opacity:1;stroke-width:0.072;stroke-miterlimit:4;stroke-dasharray:none" />
        <path
           d="m 258.86833,-0.21440668 q -0.62004,0.35927606 -1.79059,0.35927606 -1.36757,0 -2.2136,-0.82865285 -0.84604,-0.82865283 -0.84604,-2.13827203 0,-1.5124364 0.90398,-2.3816526 0.90978,-0.8750111 2.42802,-0.8750111 1.04885,0 1.51823,0.2781492 v 1.5529998 q -0.57369,-0.4288134 -1.28065,-0.4288134 -0.78809,0 -1.25167,0.463582 -0.45779,0.4577873 -0.45779,1.2690558 0,0.7880894 0.44041,1.2400819 0.4404,0.4461977 1.2111,0.4461977 0.68379,0 1.3386,-0.4288134 z"
           id="path1142"
           inkscape:connector-curvature="0"
           style="fill:none;stroke:#0000ff;stroke-opacity:1;stroke-width:0.072;stroke-miterlimit:4;stroke-dasharray:none" />
        <path
           d="m 263.65503,-0.0695373 q -0.40563,0.21440668 -1.22269,0.21440668 -1.93546,0 -1.93546,-2.01078698 v -2.7177496 h -0.96193 v -1.3501826 h 0.96193 v -1.2806453 l 1.82536,-0.5215298 v 1.8021751 h 1.33279 v 1.3501826 h -1.33279 v 2.3990369 q 0,0.9271641 0.73593,0.9271641 0.28974,0 0.59686,-0.1680485 z"
           id="path1144"
           inkscape:connector-curvature="0"
           style="fill:none;stroke:#0000ff;stroke-opacity:1;stroke-width:0.072;stroke-miterlimit:4;stroke-dasharray:none" />
        <path
           d="m 265.61178,-6.8726034 q -0.46358,0 -0.75912,-0.2723544 -0.29553,-0.2781492 -0.29553,-0.6779887 0,-0.4114291 0.29553,-0.672194 0.29554,-0.2607648 0.75912,-0.2607648 0.46938,0 0.75911,0.2607648 0.29554,0.2607649 0.29554,0.672194 0,0.4172238 -0.29554,0.6837834 -0.28973,0.2665597 -0.75911,0.2665597 z M 266.51576,0 h -1.83114 v -5.9338498 h 1.83114 z"
           id="path1146"
           inkscape:connector-curvature="0"
           style="fill:none;stroke:#0000ff;stroke-opacity:1;stroke-width:0.072;stroke-miterlimit:4;stroke-dasharray:none" />
        <path
           d="m 270.88289,0.14486938 q -1.48346,0 -2.3353,-0.82865285 -0.84603,-0.83444763 -0.84603,-2.25996233 0,-1.4718729 0.8808,-2.3005258 0.88081,-0.8344476 2.38165,-0.8344476 1.47767,0 2.31791,0.8344476 0.84025,0.8286529 0.84025,2.1962198 0,1.4776677 -0.86922,2.33529445 -0.86342,0.85762673 -2.37006,0.85762673 z m 0.0464,-4.82125298 q -0.64902,0 -1.0083,0.4461977 -0.35927,0.4461977 -0.35927,1.263261 0,1.7094587 1.37916,1.7094587 1.31541,0 1.31541,-1.7558169 0,-1.6631005 -1.327,-1.6631005 z"
           id="path1148"
           inkscape:connector-curvature="0"
           style="fill:none;stroke:#0000ff;stroke-opacity:1;stroke-width:0.072;stroke-miterlimit:4;stroke-dasharray:none" />
        <path
           d="m 281.03723,0 h -1.82535 v -3.2972271 q 0,-1.3791565 -0.98512,-1.3791565 -0.47517,0 -0.78229,0.3650708 -0.30712,0.3650709 -0.30712,0.9271641 V 0 h -1.83115 v -5.9338498 h 1.83115 v 0.9387536 h 0.0232 q 0.6548,-1.083623 1.90648,-1.083623 1.97022,0 1.97022,2.4453951 z"
           id="path1150"
           inkscape:connector-curvature="0"
           style="fill:none;stroke:#0000ff;stroke-opacity:1;stroke-width:0.072;stroke-miterlimit:4;stroke-dasharray:none" />
        <path
           d="m 287.42331,0 h -1.73264 v -0.85183196 h -0.0232 q -0.59686,0.99670134 -1.76741,0.99670134 -0.86342,0 -1.36177,-0.48676112 -0.49255,-0.49255589 -0.49255,-1.30961916 0,-1.726843 2.04555,-1.9934027 l 1.61095,-0.2144067 q 0,-0.9735222 -1.05465,-0.9735222 -1.06044,0 -2.01658,0.6316305 v -1.3791565 q 0.38245,-0.1970224 1.04306,-0.3476865 0.6664,-0.1506642 1.21111,-0.1506642 2.53811,0 2.53811,2.5323168 z m -1.72105,-2.4106265 V -2.810466 l -1.07783,0.1390746 q -0.89239,0.1158955 -0.89239,0.8054738 0,0.3129178 0.2144,0.515735 0.2202,0.1970223 0.59107,0.1970223 0.51573,0 0.84024,-0.3534813 0.32451,-0.359276 0.32451,-0.9039849 z"
           id="path1152"
           inkscape:connector-curvature="0"
           style="fill:none;stroke:#0000ff;stroke-opacity:1;stroke-width:0.072;stroke-miterlimit:4;stroke-dasharray:none" />
        <path
           d="m 290.70213,0 h -1.83114 v -8.7848792 h 1.83114 z"
           id="path1154"
           inkscape:connector-curvature="0"
           style="fill:none;stroke:#0000ff;stroke-opacity:1;stroke-width:0.072;stroke-miterlimit:4;stroke-dasharray:none" />
        <path
           d="m 302.47062,-3.5985554 q 0,3.74342478 -3.48845,3.74342478 -3.38415,0 -3.38415,-3.65650318 v -4.7980738 h 1.8775 v 4.8212529 q 0,2.0165818 1.57618,2.0165818 1.54721,0 1.54721,-1.9470445 v -4.8907902 h 1.87171 z"
           id="path1156"
           inkscape:connector-curvature="0"
           style="fill:none;stroke:#0000ff;stroke-opacity:1;stroke-width:0.072;stroke-miterlimit:4;stroke-dasharray:none" />
        <path
           d="M 303.70899,-0.15645893 V -1.6399214 q 0.452,0.2723545 0.89819,0.4056343 0.452,0.1332798 0.85184,0.1332798 0.48676,0 0.76491,-0.1332798 0.28394,-0.1332798 0.28394,-0.4056343 0,-0.1738432 -0.12749,-0.2897387 -0.12748,-0.1158955 -0.3303,-0.2028172 -0.19702,-0.086922 -0.43461,-0.1564589 -0.23758,-0.069537 -0.45778,-0.1564589 -0.35348,-0.1332799 -0.62584,-0.283944 -0.26656,-0.156459 -0.45199,-0.3592761 -0.17964,-0.2028171 -0.27815,-0.4693768 -0.0927,-0.2665596 -0.0927,-0.6316305 0,-0.4983506 0.21441,-0.8576267 0.2202,-0.3592761 0.57948,-0.5852723 0.36507,-0.231791 0.82865,-0.336097 0.46938,-0.1101007 0.97352,-0.1101007 0.39405,0 0.79968,0.063743 0.40564,0.057948 0.79968,0.1738433 v 1.4139251 q -0.34769,-0.2028171 -0.74753,-0.3013283 -0.39404,-0.1043059 -0.7765,-0.1043059 -0.17963,0 -0.34189,0.034769 -0.15646,0.028974 -0.27815,0.092716 -0.12169,0.057948 -0.19122,0.156459 -0.0695,0.092716 -0.0695,0.2144066 0,0.1622538 0.1043,0.2781493 0.10431,0.1158955 0.27236,0.2028171 0.16805,0.081127 0.37086,0.1506641 0.20862,0.063743 0.41143,0.1332799 0.36507,0.127485 0.66061,0.2781492 0.29553,0.1506641 0.50414,0.3534813 0.21441,0.2028171 0.32451,0.4751715 0.1159,0.2723545 0.1159,0.6490149 0,0.5273245 -0.23179,0.90398489 -0.226,0.37086562 -0.60846,0.6084514 -0.37666,0.23179101 -0.87501,0.33609696 -0.49255,0.11010073 -1.02567,0.11010073 -0.97932,0 -1.81377,-0.30132831 z"
           id="path1158"
           inkscape:connector-curvature="0"
           style="fill:none;stroke:#0000ff;stroke-opacity:1;stroke-width:0.072;stroke-miterlimit:4;stroke-dasharray:none" />
        <path
           d="m 314.65024,-2.4453951 h -3.87091 q 0.0927,1.2922348 1.62833,1.2922348 0.97932,0 1.72105,-0.463582 v 1.32120876 q -0.82286,0.44040292 -2.13827,0.44040292 -1.43711,0 -2.23099,-0.7938842 -0.79389,-0.79967898 -0.79389,-2.22519368 0,-1.4776677 0.85763,-2.3410892 0.85763,-0.8634215 2.1093,-0.8634215 1.29803,0 2.00499,0.7707051 0.71276,0.7707051 0.71276,2.0919139 z m -1.69787,-1.1241864 q 0,-1.2748506 -1.03147,-1.2748506 -0.4404,0 -0.76491,0.3650709 -0.31871,0.3650708 -0.38825,0.9097797 z"
           id="path1160"
           inkscape:connector-curvature="0"
           style="fill:none;stroke:#0000ff;stroke-opacity:1;stroke-width:0.072;stroke-miterlimit:4;stroke-dasharray:none" />
        <path
           d="m 322.70621,0.14486938 q -1.78479,0 -2.90898,-1.15895508 -1.12418,-1.1647498 -1.12418,-3.0306674 0,-1.9702236 1.14157,-3.1871264 1.14157,-1.2169028 3.02487,-1.2169028 1.77899,0 2.87421,1.1647499 1.101,1.1647498 1.101,3.0712308 0,1.958634 -1.14157,3.1581525 -1.13577,1.19951848 -2.96692,1.19951848 z m 0.0811,-6.98270408 q -0.98512,0 -1.56459,0.7417312 -0.57948,0.7359364 -0.57948,1.9528392 0,1.2342871 0.57948,1.9528393 0.57947,0.7185521 1.51823,0.7185521 0.96773,0 1.53561,-0.695373 0.56789,-0.7011678 0.56789,-1.9412497 0,-1.2922349 -0.5505,-2.010787 -0.55051,-0.7185521 -1.50664,-0.7185521 z"
           id="path1162"
           inkscape:connector-curvature="0"
           style="fill:none;stroke:#0000ff;stroke-opacity:1;stroke-width:0.072;stroke-miterlimit:4;stroke-dasharray:none" />
        <path
           d="m 333.7417,0 h -1.82536 v -3.2972271 q 0,-1.3791565 -0.98511,-1.3791565 -0.47517,0 -0.78229,0.3650708 -0.30713,0.3650709 -0.30713,0.9271641 V 0 h -1.83115 v -5.9338498 h 1.83115 v 0.9387536 h 0.0232 q 0.65481,-1.083623 1.90648,-1.083623 1.97023,0 1.97023,2.4453951 z"
           id="path1164"
           inkscape:connector-curvature="0"
           style="fill:none;stroke:#0000ff;stroke-opacity:1;stroke-width:0.072;stroke-miterlimit:4;stroke-dasharray:none" />
        <path
           d="m 337.02178,0 h -1.83115 v -8.7848792 h 1.83115 z"
           id="path1166"
           inkscape:connector-curvature="0"
           style="fill:none;stroke:#0000ff;stroke-opacity:1;stroke-width:0.072;stroke-miterlimit:4;stroke-dasharray:none" />
        <path
           d="m 344.21096,-5.9338498 -2.41063,6.40902137 q -0.86922,2.31211533 -2.61924,2.31211533 -0.6664,0 -1.09521,-0.1506642 V 1.1763394 q 0.36507,0.2144066 0.79388,0.2144066 0.70696,0 0.98511,-0.6663991 l 0.31292,-0.73593645 -2.41062,-5.92226025 h 2.02817 l 1.1068,3.6101449 q 0.1043,0.336097 0.16225,0.7938842 h 0.0232 q 0.0521,-0.3360969 0.19123,-0.7822946 l 1.11839,-3.6217345 z"
           id="path1168"
           inkscape:connector-curvature="0"
           style="fill:none;stroke:#0000ff;stroke-opacity:1;stroke-width:0.072;stroke-miterlimit:4;stroke-dasharray:none" />
        <path
           d="m 345.76294,0.14486938 q -0.45199,0 -0.75332,-0.27814921 -0.30133,-0.27814921 -0.30133,-0.68378347 0,-0.4172238 0.30712,-0.6837835 0.31292,-0.2665596 0.7765,-0.2665596 0.46938,0 0.76491,0.2723544 0.30133,0.2665597 0.30133,0.6779887 0,0.42301859 -0.30712,0.69537302 -0.30133,0.26655966 -0.78809,0.26655966 z"
           id="path1170"
           inkscape:connector-curvature="0"
           style="fill:none;stroke:#0000ff;stroke-opacity:1;stroke-width:0.072;stroke-miterlimit:4;stroke-dasharray:none" />
      </g>
    </g>
  </g>
</svg>
