<?xml version="1.0" encoding="UTF-8" standalone="no"?>
<!-- Created with Inkscape (http://www.inkscape.org/) -->

<svg
   xmlns:dc="http://purl.org/dc/elements/1.1/"
   xmlns:cc="http://creativecommons.org/ns#"
   xmlns:rdf="http://www.w3.org/1999/02/22-rdf-syntax-ns#"
   xmlns:svg="http://www.w3.org/2000/svg"
   xmlns="http://www.w3.org/2000/svg"
   xmlns:sodipodi="http://sodipodi.sourceforge.net/DTD/sodipodi-0.dtd"
   xmlns:inkscape="http://www.inkscape.org/namespaces/inkscape"
   version="1.1"
   id="svg1496"
   xml:space="preserve"
   width="2304"
   height="1152"
   viewBox="0 0 2304 1152"
   sodipodi:docname="useless_machine_lid.svg"
   inkscape:version="0.92.3 (2405546, 2018-03-11)"><metadata
     id="metadata1502"><rdf:RDF><cc:Work
         rdf:about=""><dc:format>image/svg+xml</dc:format><dc:type
           rdf:resource="http://purl.org/dc/dcmitype/StillImage" /><dc:title></dc:title></cc:Work></rdf:RDF></metadata><defs
     id="defs1500" /><sodipodi:namedview
     pagecolor="#ffffff"
     bordercolor="#666666"
     borderopacity="1"
     objecttolerance="10"
     gridtolerance="10"
     guidetolerance="10"
     inkscape:pageopacity="0"
     inkscape:pageshadow="2"
     inkscape:window-width="2560"
     inkscape:window-height="1395"
     id="namedview1498"
     showgrid="false"
     inkscape:zoom="0.57943472"
     inkscape:cx="831.27155"
     inkscape:cy="384.51068"
     inkscape:window-x="-13"
     inkscape:window-y="-13"
     inkscape:window-maximized="1"
     inkscape:current-layer="g1504" /><g
     id="g1504"
     inkscape:groupmode="layer"
     inkscape:label="useless_machine_lid"
     transform="matrix(1.3333333,0,0,-1.3333333,0,1152)"><g
       id="g1506"
       transform="translate(8.1,832.1)"
       style="fill:none;stroke:#0000ff;stroke-opacity:1;stroke-width:0.072;stroke-miterlimit:5;stroke-dasharray:none"><path
         d="m 0,0 h -4.5 m 36,28.8 v -4.5 m 0,0 h 36.1 m 0,0 v 4.5 m 35.9,0 v -4.5 m 0,0 h 36.1 m 0,0 v 4.5 m 35.9,0 v -4.5 m 0,0 h 36.1 m 0,0 v 4.5 m 35.9,0 v -4.5 m 0,0 h 36.1 m 0,0 v 4.5 M 319.5,0 H 315 m 0,0 v -28.9 m 0,0 h 4.5 m 0,-28.7 H 315 m 0,0 v -28.9 m 0,0 h 4.5 m 0,-28.7 H 315 m 0,0 v -28.9 m 0,0 h 4.5 m 0,-28.7 H 315 m 0,0 v -28.9 m 0,0 h 4.5 m -35.9,-28.7 v 4.5 m 0,0 h -36.1 m 0,0 v -4.5 m -35.9,0 v 4.5 m 0,0 h -36.1 m 0,0 v -4.5 m -35.9,0 v 4.5 m 0,0 h -36.1 m 0,0 v -4.5 m -35.9,0 v 4.5 m 0,0 H 31.5 m 0,0 v -4.5 m -36,28.7 H 0 m 0,0 v 28.9 m 0,0 h -4.5 m 0,28.7 H 0 m 0,0 v 28.9 m 0,0 h -4.5 m 0,28.7 H 0 m 0,0 v 28.9 m 0,0 h -4.5 m 0,28.7 H 0 m 0,0 L 0,0 m 103.5,-18 -2.7,-3.5 -2.4,-3.8 -2.2,-3.8 -1.9,-4 -1.7,-4.1 -1.4,-4.2 -1.1,-4.3 -0.9,-4.4 -0.5,-4.4 -0.3,-4.4 v -4.4 l 0.2,-4.5 0.6,-4.4 0.8,-4.3 1.2,-4.3 1.4,-4.2 1.6,-4.1 1.9,-4 2.2,-3.9 2.4,-3.7 2.7,-3.6 2.9,-3.4 3,-3.1 3.3,-3 3.5,-2.8 3.6,-2.5 3.8,-2.3 4,-2.1 4,-1.8 4.2,-1.5 4.2,-1.3 4.4,-1 4.3,-0.7 4.4,-0.4 4.5,-0.2 4.4,0.2 4.4,0.4 4.4,0.7 4.3,1 4.3,1.3 4.1,1.5 4.1,1.8 3.9,2.1 3.8,2.3 3.7,2.5 3.4,2.8 3.3,3 3.1,3.1 2.9,3.4 2.6,3.6 2.4,3.7 2.2,3.9 1.9,4 1.7,4.1 1.4,4.2 1.1,4.3 0.9,4.3 0.5,4.4 0.3,4.5 v 4.4 l -0.3,4.4 -0.6,4.4 -0.8,4.4 -1.1,4.3 -1.5,4.2 -1.6,4.1 -2,4 -2.1,3.8 -2.5,3.8 -2.6,3.5 m 0,0 h -108 m 153,-43.2 -0.1,1.6 -0.5,1.6 -0.7,1.4 -0.9,1.3 -1.2,1.2 -1.3,0.9 -1.5,0.6 -1.6,0.4 h -1.6 l -1.6,-0.2 -1.6,-0.5 -1.4,-0.8 -1.3,-1 -1,-1.2 -0.9,-1.4 -0.5,-1.5 -0.3,-1.6 V -62 l 0.3,-1.6 0.5,-1.5 0.9,-1.4 1,-1.2 1.3,-1 1.4,-0.8 1.6,-0.5 1.6,-0.2 h 1.6 l 1.6,0.4 1.5,0.6 1.3,0.9 1.2,1.2 0.9,1.3 0.7,1.4 0.5,1.6 0.1,1.6 m -26.3,-63.6 -0.2,1.6 -0.4,1.5 -0.7,1.5 -1,1.3 -1.1,1.1 -1.4,0.9 -1.5,0.7 -1.6,0.3 -1.6,0.1 -1.6,-0.2 -1.5,-0.5 -1.5,-0.8 -1.2,-1 -1.1,-1.2 -0.8,-1.4 -0.6,-1.5 -0.3,-1.6 v -1.6 l 0.3,-1.6 0.6,-1.6 0.8,-1.3 1.1,-1.3 1.2,-1 1.5,-0.7 1.5,-0.5 1.6,-0.3 1.6,0.1 1.6,0.4 1.5,0.6 1.4,0.9 1.1,1.1 1,1.3 0.7,1.5 0.4,1.5 0.2,1.7 m -63.7,-26.4 -0.1,1.6 -0.5,1.6 -0.7,1.4 -0.9,1.3 -1.2,1.2 -1.3,0.9 -1.5,0.6 -1.6,0.4 h -1.6 l -1.6,-0.2 -1.6,-0.5 -1.4,-0.8 -1.3,-1 -1,-1.2 -0.9,-1.4 -0.5,-1.5 -0.3,-1.6 v -1.6 l 0.3,-1.6 0.5,-1.5 0.9,-1.4 1,-1.2 1.3,-1 1.4,-0.8 1.6,-0.5 1.6,-0.2 h 1.6 l 1.6,0.4 1.5,0.6 1.3,0.9 1.2,1.2 0.9,1.3 0.7,1.4 0.5,1.6 0.1,1.6 m -63.6,26.4 -0.2,1.6 -0.4,1.5 -0.7,1.5 -1,1.3 -1.1,1.1 -1.4,0.9 -1.5,0.7 -1.5,0.3 -1.7,0.1 -1.6,-0.2 -1.5,-0.5 -1.4,-0.8 -1.3,-1 -1.1,-1.2 -0.8,-1.4 -0.6,-1.5 -0.3,-1.6 v -1.6 l 0.3,-1.6 0.6,-1.6 0.8,-1.3 1.1,-1.3 1.3,-1 1.4,-0.7 1.5,-0.5 1.6,-0.3 1.7,0.1 1.5,0.4 1.5,0.6 1.4,0.9 1.1,1.1 1,1.3 0.7,1.5 0.4,1.5 0.2,1.7 m -26.4,63.6 -0.1,1.6 -0.5,1.6 -0.7,1.4 -0.9,1.3 -1.2,1.2 -1.3,0.9 -1.5,0.6 -1.6,0.4 h -1.6 l -1.6,-0.2 -1.6,-0.5 -1.4,-0.8 -1.3,-1 -1,-1.2 -0.9,-1.4 -0.5,-1.5 -0.3,-1.6 V -62 l 0.3,-1.6 0.5,-1.5 0.9,-1.4 1,-1.2 1.3,-1 1.4,-0.8 1.6,-0.5 1.6,-0.2 h 1.6 l 1.6,0.4 1.5,0.6 1.3,0.9 1.2,1.2 0.9,1.3 0.7,1.4 0.5,1.6 0.1,1.6 M 153,-182.7 v -9 m 0,0 h 9 m 0,0 v 9 m 0,0 h -9 m 29.9,181.6 -0.2,0.9 -0.4,0.8 -0.7,0.7 -0.9,0.4 h -1 L 178.8,1.5 178,1 177.4,0.2 177.1,-0.6 v -1 l 0.3,-0.9 0.6,-0.7 0.8,-0.6 0.9,-0.2 1,0.1 0.9,0.4 0.7,0.6 0.4,0.8 0.2,1 m -45,0 -0.2,0.9 -0.4,0.8 -0.7,0.7 -0.9,0.4 h -1 L 133.8,1.5 133,1 132.4,0.2 132.1,-0.6 v -1 l 0.3,-0.9 0.6,-0.7 0.8,-0.6 0.9,-0.2 1,0.1 0.9,0.4 0.7,0.6 0.4,0.8 0.2,1 m 145.7,-229.3 h 35.9 M -4.5,28.8 V 0 m 36,28.8 h -36 m 324,-86.4 v 28.7 M 211.6,-230.4 h 35.9 m -107.9,0 h 35.9 m -107.9,0 h 35.9 m -108,0 h 36 m -36,143.9 v -28.7 m 0,-28.9 v -28.7 m 0,-28.9 v -28.7 m 0,201.5 v -28.7 m 324,86.4 h -35.9 m -36.1,0 h -35.9 m -36.1,0 h -35.9 m -36.1,0 H 67.6 M 319.5,0 v 28.8 m 0,-144 v 28.7 m 0,-86.3 v 28.7 m 0,-86.3 v 28.7"
         style="fill:none;stroke:#0000ff;stroke-width:0.072;stroke-linecap:round;stroke-linejoin:round;stroke-miterlimit:5;stroke-dasharray:none;stroke-opacity:1"
         id="path1508"
         inkscape:connector-curvature="0" /></g><path
       inkscape:connector-curvature="0"
       id="path1512"
       style="fill:none;stroke:#0000ff;stroke-width:0.072;stroke-linecap:round;stroke-linejoin:round;stroke-miterlimit:5;stroke-dasharray:none;stroke-opacity:1"
       d="m 701.3,569.8 v -4.5 m -36.1,0 h 36.1 m -36.1,0 v 4.5 m 0,0 h -35.9 m 0,0 v -4.5 m -36.1,0 h 36.1 m -36.1,0 v 4.5 m 0,0 h -35.9 m 0,0 v -4.5 m -36.1,0 h 36.1 m -36.1,0 v 4.5 m 0,0 h -35.9 m 0,0 v -4.5 m -36.1,0 h 36.1 m -36.1,0 v 4.5 m 0,0 h -31.5 m 0,0 V 594 m 0,0 h -4.5 m 0,28.9 V 594 m 0,28.9 h 4.5 m 0,0 v 28.7 m 0,0 h -4.5 m 0,28.9 v -28.9 m 0,28.9 h 4.5 m 0,0 v 28.7 m 0,0 h -4.5 m 0,28.9 v -28.9 m 0,28.9 h 4.5 m 0,0 v 28.7 m 0,0 h -4.5 m 0,28.9 v -28.9 m 0,28.9 h 4.5 m 0,0 V 820 m 31.5,0 h -31.5 m 31.5,0 v 4.5 m 36.1,0 h -36.1 m 36.1,0 V 820 m 35.9,0 h -35.9 m 35.9,0 v 4.5 m 36.1,0 h -36.1 m 36.1,0 V 820 m 35.9,0 h -35.9 m 35.9,0 v 4.5 m 36.1,0 h -36.1 m 36.1,0 V 820 m 35.9,0 h -35.9 m 35.9,0 v 4.5 m 36.1,0 h -36.1 m 36.1,0 V 820 m 31.4,0 h -31.4 m 31.4,0 v -24.3 m 0,0 h 4.5 m 0,-28.9 v 28.9 m 0,-28.9 h -4.5 m 0,0 v -28.7 m 0,0 h 4.5 m 0,-28.9 v 28.9 m 0,-28.9 h -4.5 m 0,0 v -28.7 m 0,0 h 4.5 m 0,-28.9 v 28.9 m 0,-28.9 h -4.5 m 0,0 v -28.7 m 0,0 h 4.5 m 0,-28.9 v 28.9 m 0,-28.9 h -4.5 m 0,0 v -24.2 m 0,0 h -31.4" /><g
       id="g1514"
       transform="translate(1122,561.1)"
       style="fill:none;stroke:#0000ff;stroke-opacity:1;stroke-width:0.072;stroke-miterlimit:5;stroke-dasharray:none"><path
         d="m 0,0 v -4.5 m -36,0 H 0 m -36,0 V 0 m 0,0 h -36 m 0,0 v -4.5 m -36,0 h 36 m -36,0 V 0 m 0,0 h -36 m 0,0 v -4.5 m -36,0 h 36 m -36,0 V 0 m 0,0 h -36 m 0,0 v -4.5 m -36,0 h 36 m -36,0 V 0 m 0,0 h -31.5 m 0,0 v 24.2 m 0,0 h -4.5 m 0,28.9 V 24.2 m 0,28.9 h 4.5 m 0,0 v 28.7 m 0,0 h -4.5 m 0,28.9 V 81.8 m 0,28.9 h 4.5 m 0,0 v 28.7 m 0,0 h -4.5 m 0,28.9 v -28.9 m 0,28.9 h 4.5 m 0,0 V 197 m 0,0 h -4.5 m 0,28.9 V 197 m 0,28.9 h 4.5 m 0,0 v 24.3 m 31.5,0 h -31.5 m 31.5,0 v 4.5 m 36,0 h -36 m 36,0 v -4.5 m 36,0 h -36 m 36,0 v 4.5 m 36,0 h -36 m 36,0 v -4.5 m 36,0 h -36 m 36,0 v 4.5 m 36,0 h -36 m 36,0 v -4.5 m 36,0 h -36 m 36,0 v 4.5 m 36,0 h -36 m 36,0 v -4.5 m 31.5,0 H 0 m 31.5,0 v -24.3 m 0,0 H 36 M 36,197 v 28.9 M 36,197 h -4.5 m 0,0 v -28.7 m 0,0 H 36 m 0,-28.9 v 28.9 m 0,-28.9 h -4.5 m 0,0 v -28.7 m 0,0 H 36 m 0,-28.9 v 28.9 m 0,-28.9 h -4.5 m 0,0 V 53.1 m 0,0 H 36 m 0,-28.9 v 28.9 m 0,-28.9 h -4.5 m 0,0 V 0 m 0,0 L 0,0"
         style="fill:none;stroke:#0000ff;stroke-width:0.072;stroke-linecap:round;stroke-linejoin:round;stroke-miterlimit:5;stroke-dasharray:none;stroke-opacity:1"
         id="path1516"
         inkscape:connector-curvature="0" /></g><g
       id="g1518"
       transform="translate(1242.8,796.6)"
       style="fill:none;stroke:#0000ff;stroke-opacity:1;stroke-width:0.072;stroke-miterlimit:5;stroke-dasharray:none"><path
         d="m 0,0 h -4.5 m 36,28.8 v -4.5 m 0,0 h 36.1 m 0,0 v 4.5 m 35.9,0 v -4.5 m 0,0 h 36.1 m 0,0 v 4.5 m 35.9,0 v -4.5 m 0,0 h 36.1 m 0,0 v 4.5 m 35.9,0 v -4.5 m 0,0 h 36.1 m 0,0 v 4.5 M 319.5,0 H 315 m 0,0 v -28.8 m 0,0 h 4.5 m 0,-28.8 H 315 m 0,0 v -28.8 m 0,0 h 4.5 m 0,-28.8 H 315 m 0,0 V -144 m 0,0 h 4.5 m 0,-28.8 H 315 m 0,0 v -28.8 m 0,0 h 4.5 m -35.9,-28.8 v 4.5 m 0,0 h -36.1 m 0,0 v -4.5 m -35.9,0 v 4.5 m 0,0 h -36.1 m 0,0 v -4.5 m -35.9,0 v 4.5 m 0,0 h -36.1 m 0,0 v -4.5 m -35.9,0 v 4.5 m 0,0 H 31.5 m 0,0 v -4.5 m -36,28.8 H 0 m 0,0 v 28.8 m 0,0 h -4.5 m 0,28.8 H 0 m 0,0 v 28.8 m 0,0 h -4.5 m 0,28.8 H 0 m 0,0 v 28.8 m 0,0 h -4.5 m 0,28.8 H 0 m 0,0 L 0,0 m 283.6,-230.4 h 35.9 M -4.5,28.8 V 0 m 36,28.8 h -36 m 324,-86.4 v 28.8 M 211.6,-230.4 h 35.9 m -107.9,0 h 35.9 m -107.9,0 h 35.9 m -108,0 h 36 m -36,144 v -28.8 m 0,-28.8 v -28.8 m 0,-28.8 v -28.8 m 0,201.6 v -28.8 m 324,86.4 h -35.9 m -36.1,0 h -35.9 m -36.1,0 h -35.9 m -36.1,0 H 67.6 M 319.5,0 v 28.8 m 0,-144 v 28.8 m 0,-86.4 v 28.8 m 0,-86.4 v 28.8"
         style="fill:none;stroke:#0000ff;stroke-width:0.072;stroke-linecap:round;stroke-linejoin:round;stroke-miterlimit:5;stroke-dasharray:none;stroke-opacity:1"
         id="path1520"
         inkscape:connector-curvature="0" /></g><g
       id="g1522"
       transform="translate(73.1,250.5)"
       style="fill:none;stroke:#0000ff;stroke-opacity:1;stroke-width:0.072;stroke-miterlimit:5;stroke-dasharray:none"><path
         d="M 0,0 V -24.3 M 0,0 h 4.5 m 0,0 v 28.8 m 0,0 H 0 M 0,57.6 V 28.8 m 0,28.8 h 4.5 m 0,0 v 28.8 m 0,0 H 0 m 0,28.8 V 86.4 m 0,28.8 h 4.5 m 0,0 V 144 m 0,0 H 0 m 0,28.8 V 144 m 0,28.8 h 4.5 m 0,0 v 28.8 m 0,0 H 0 m 0,24.3 v -24.3 m 28.8,24.3 H 0 m 28.8,0 v 4.5 m 28.9,0 H 28.8 m 28.9,0 v -4.5 m 28.7,0 H 57.7 m 28.7,0 v 4.5 m 28.9,0 H 86.4 m 28.9,0 v -4.5 m 28.7,0 h -28.7 m 28.7,0 v 4.5 m 28.9,0 H 144 m 28.9,0 v -4.5 m 28.7,0 h -28.7 m 28.7,0 v 4.5 m 28.9,0 h -28.9 m 28.9,0 v -4.5 m 28.7,0 h -28.7 m 28.7,-24.3 v 24.3 m 0,-24.3 h -4.5 m 0,0 v -28.8 m 0,0 h 4.5 m 0,-28.8 v 28.8 m 0,-28.8 h -4.5 m 0,0 v -28.8 m 0,0 h 4.5 m 0,-28.8 v 28.8 m 0,-28.8 h -4.5 m 0,0 V 57.6 m 0,0 h 4.5 m 0,-28.8 v 28.8 m 0,-28.8 h -4.5 m 0,0 V 0 m 0,0 h 4.5 m 0,-24.3 V 0 m 0,-24.3 h -28.8 m 0,0 v -4.5 m -9.5,0 h 9.5 m -9.5,0 v 68.2 m 0,0 H 38.3 m 0,0 v -68.2 m -9.5,0 h 9.5 m -9.5,0 v 4.5 m 0,0 H 0"
         style="fill:none;stroke:#0000ff;stroke-width:0.072;stroke-linecap:round;stroke-linejoin:round;stroke-miterlimit:5;stroke-dasharray:none;stroke-opacity:1"
         id="path1524"
         inkscape:connector-curvature="0" /></g><g
       id="g1526"
       transform="translate(415.7,259.1)"
       style="fill:none;stroke:#0000ff;stroke-opacity:1;stroke-width:0.072;stroke-miterlimit:5;stroke-dasharray:none"><path
         d="M 0,0 V -24.2 M 0,0 h 4.5 m 0,0 v 28.9 m 0,0 H 0 M 0,57.6 V 28.9 m 0,28.7 h 4.5 m 0,0 v 28.9 m 0,0 H 0 m 0,28.7 V 86.5 m 0,28.7 h 4.5 m 0,0 v 28.9 m 0,0 H 0 m 0,28.7 v -28.7 m 0,28.7 h 4.5 m 0,0 v 28.9 m 0,0 H 0 M 0,226 V 201.7 M 28.8,226 H 0 m 28.8,0 v 4.5 m 28.9,0 H 28.8 m 28.9,0 V 226 m 28.7,0 H 57.7 m 28.7,0 v 4.5 m 28.9,0 H 86.4 m 28.9,0 V 226 m 28.7,0 h -28.7 m 28.7,0 v 4.5 m 28.9,0 H 144 m 28.9,0 V 226 m 28.7,0 h -28.7 m 28.7,0 v 4.5 m 28.9,0 h -28.9 m 28.9,0 V 226 m 28.7,0 h -28.7 m 28.7,-24.3 V 226 m 0,-24.3 h -4.5 m 0,0 v -28.9 m 0,0 h 4.5 m 0,-28.7 v 28.7 m 0,-28.7 h -4.5 m 0,0 v -28.9 m 0,0 h 4.5 m 0,-28.7 v 28.7 m 0,-28.7 h -4.5 m 0,0 V 57.6 m 0,0 h 4.5 m 0,-28.7 v 28.7 m 0,-28.7 h -4.5 m 0,0 V 0 m 0,0 h 4.5 m 0,-24.2 V 0 m 0,-24.2 h -28.8 m 0,0 v -4.5 m -9.5,0 h 9.5 m -9.5,0 v 68.2 m 0,0 H 38.3 m 0,0 v -68.2 m -9.6,0 h 9.6 m -9.6,0 v 4.5 m 0,0 H 0"
         style="fill:none;stroke:#0000ff;stroke-width:0.072;stroke-linecap:round;stroke-linejoin:round;stroke-miterlimit:5;stroke-dasharray:none;stroke-opacity:1"
         id="path1528"
         inkscape:connector-curvature="0" /></g></g></svg>