<?xml version="1.0" encoding="UTF-8" standalone="no"?>
<!-- Created with Inkscape (http://www.inkscape.org/) -->

<svg
   xmlns:dc="http://purl.org/dc/elements/1.1/"
   xmlns:cc="http://creativecommons.org/ns#"
   xmlns:rdf="http://www.w3.org/1999/02/22-rdf-syntax-ns#"
   xmlns:svg="http://www.w3.org/2000/svg"
   xmlns="http://www.w3.org/2000/svg"
   xmlns:sodipodi="http://sodipodi.sourceforge.net/DTD/sodipodi-0.dtd"
   xmlns:inkscape="http://www.inkscape.org/namespaces/inkscape"
   width="210mm"
   height="297mm"
   viewBox="0 0 210 297"
   version="1.1"
   id="svg8"
   inkscape:version="0.92.3 (2405546, 2018-03-11)"
   sodipodi:docname="useless_machine_servo_arm.svg">
  <defs
     id="defs2" />
  <sodipodi:namedview
     id="base"
     pagecolor="#ffffff"
     bordercolor="#666666"
     borderopacity="1.0"
     inkscape:pageopacity="0.0"
     inkscape:pageshadow="2"
     inkscape:zoom="0.98994949"
     inkscape:cx="86.474413"
     inkscape:cy="833.6962"
     inkscape:document-units="mm"
     inkscape:current-layer="layer1"
     showgrid="false"
     inkscape:window-width="2560"
     inkscape:window-height="1395"
     inkscape:window-x="-13"
     inkscape:window-y="-13"
     inkscape:window-maximized="1" />
  <metadata
     id="metadata5">
    <rdf:RDF>
      <cc:Work
         rdf:about="">
        <dc:format>image/svg+xml</dc:format>
        <dc:type
           rdf:resource="http://purl.org/dc/dcmitype/StillImage" />
        <dc:title></dc:title>
      </cc:Work>
    </rdf:RDF>
  </metadata>
  <g
     inkscape:label="Layer 1"
     inkscape:groupmode="layer"
     id="layer1">
    <g
       style="fill:none;stroke:#0000ff;stroke-width:0.072;stroke-miterlimit:4;stroke-dasharray:none;stroke-opacity:1"
       id="g825"
       transform="matrix(0.35277777,0,0,-0.35277777,-2.8616478,21.817638)">
      <path
         d="m 0,0 v -21.6 m 0,0 H -61.2 M -87.7,-183 v 1 l 0.3,1.1 0.4,0.9 0.5,0.9 0.6,0.9 0.8,0.7 0.9,0.6 0.9,0.4 1,0.3 1.1,0.2 h 1 l 1.1,-0.2 1,-0.3 0.9,-0.4 0.9,-0.6 0.8,-0.7 0.6,-0.9 0.5,-0.9 0.4,-0.9 0.3,-1.1 v -1 -1.1 l -0.3,-1 -0.4,-1 -0.5,-0.9 -0.6,-0.8 -0.8,-0.7 -0.9,-0.6 -0.9,-0.5 -1,-0.3 -1.1,-0.1 h -1 l -1.1,0.1 -1,0.3 -0.9,0.5 -0.9,0.6 -0.8,0.7 -0.6,0.8 -0.5,0.9 -0.4,1 -0.3,1 v 1.1 m -11.7,-15 h 38.2 M -99.4,0 V -198 M 0,0 h -99.4 m 38.2,-198 v 176.4"
         style="fill:none;stroke:#0000ff;stroke-width:0.072;stroke-linecap:round;stroke-linejoin:round;stroke-miterlimit:4;stroke-dasharray:none;stroke-opacity:1"
         id="path827"
         inkscape:connector-curvature="0" />
    </g>
    <g
       style="fill:none;stroke:#0000ff;stroke-width:0.072;stroke-miterlimit:4;stroke-dasharray:none;stroke-opacity:1"
       id="g829"
       transform="matrix(0.35277777,0,0,-0.35277777,80.781961,22.699582)">
      <path
         d="m 0,0 v -21.6 m 0,0 h -61.2 m -26.5,-161.5 v 1.1 l 0.3,1 0.4,1 0.5,0.9 0.6,0.8 0.8,0.7 0.9,0.6 0.9,0.4 1,0.4 1.1,0.1 h 1 l 1.1,-0.1 1,-0.4 0.9,-0.4 0.9,-0.6 0.8,-0.7 0.6,-0.8 0.5,-0.9 0.4,-1 0.2,-1 0.1,-1.1 -0.1,-1 -0.2,-1.1 -0.4,-0.9 -0.5,-1 -0.6,-0.8 -0.8,-0.7 -0.9,-0.6 -0.9,-0.4 -1,-0.4 -1.1,-0.1 h -1 l -1.1,0.1 -1,0.4 -0.9,0.4 -0.9,0.6 -0.8,0.7 -0.6,0.8 -0.5,1 -0.4,0.9 -0.3,1.1 v 1 M -99.4,-198 h 38.2 M -99.4,0 V -198 M 0,0 h -99.4 m 38.2,-198 v 176.4"
         style="fill:none;stroke:#0000ff;stroke-width:0.072;stroke-linecap:round;stroke-linejoin:round;stroke-miterlimit:4;stroke-dasharray:none;stroke-opacity:1"
         id="path831"
         inkscape:connector-curvature="0" />
    </g>
    <g
       style="fill:none;stroke:#0000ff;stroke-width:0.072;stroke-miterlimit:4;stroke-dasharray:none;stroke-opacity:1"
       id="g833"
       transform="matrix(0.35277777,0,0,-0.35277777,208.76974,53.849859)">
      <path
         d="m 0,0 h -28.1 m -40,-25.2 h 108 m -108,72 v -72 m 108,0 v 72 m 0,0 h -108 M -28.1,0 v 21.6 m 0,0 H 0 M 0,0 v 21.6"
         style="fill:none;stroke:#0000ff;stroke-width:0.072;stroke-linecap:round;stroke-linejoin:round;stroke-miterlimit:4;stroke-dasharray:none;stroke-opacity:1"
         id="path835"
         inkscape:connector-curvature="0" />
    </g>
    <g
       style="fill:none;stroke:#0000ff;stroke-width:0.072;stroke-miterlimit:4;stroke-dasharray:none;stroke-opacity:1"
       id="g837"
       transform="matrix(0.35277777,0,0,-0.35277777,3.3825187,129.09736)">
      <path
         d="M 0,0 H -14 M 26,40 V 26 m 0,0 h 43.2 m 0,0 v 14 m 43.2,0 V 26 m 0,0 h 43.2 m 0,0 v 14 m 43.2,0 V 26 m 0,0 H 242 m 0,0 v 14 m 43.2,0 V 26 m 0,0 h 43.2 m 0,0 V 40 M 374.8,0 h -14.1 m 0,0 v -43.2 m 0,0 h 14.1 m 0,-43.2 h -14.1 m 0,0 v -43.2 m 0,0 h 14.1 m 0,-43.2 h -14.1 m 0,0 V -216 m 0,0 h 14.1 m 0,-43.2 h -14.1 m 0,0 v -43.2 m 0,0 h 14.1 m -46.4,-46.4 v 4.5 m 0,0 h -43.2 m 0,0 v -4.5 m -43.2,0 v 4.5 m 0,0 h -43.2 m 0,0 v -4.5 m -43.2,0 v 4.5 m 0,0 h -43.2 m 0,0 v -4.5 m -43.2,0 v 4.5 m 0,0 H 26 m 0,0 v -4.5 m -40,46.4 H 0 m 0,0 v 43.2 m 0,0 h -14 m 0,43.2 H 0 m 0,0 v 43.2 m 0,0 h -14 m 0,43.2 H 0 m 0,0 v 43.2 m 0,0 h -14 m 0,43.2 H 0 m 0,0 V 0 m 126.4,-64.4 -5.4,-3.4 -5.1,-3.7 -4.9,-4.1 -4.6,-4.3 -4.4,-4.6 -4.1,-4.9 -3.7,-5.1 -3.5,-5.3 -3.1,-5.5 -2.8,-5.7 -2.5,-5.9 -2.1,-6 -1.7,-6.1 -1.3,-6.2 -1,-6.3 -0.6,-6.3 -0.2,-6.4 0.2,-6.3 0.6,-6.3 0.9,-6.3 1.3,-6.2 1.7,-6.1 2.1,-6 2.4,-5.9 2.8,-5.7 3.1,-5.5 3.4,-5.4 3.8,-5.1 4,-4.9 4.4,-4.6 4.6,-4.4 4.9,-4 5.1,-3.8 5.3,-3.4 5.5,-3.2 5.7,-2.8 5.9,-2.4 6,-2.1 6.1,-1.7 6.2,-1.3 6.3,-1 6.3,-0.5 6.4,-0.2 6.3,0.2 6.3,0.5 6.3,1 6.2,1.3 6.1,1.7 6,2.1 5.9,2.4 5.7,2.8 5.5,3.2 5.4,3.4 5.1,3.8 4.8,4 4.7,4.4 4.3,4.6 4.1,4.9 3.7,5.1 3.5,5.4 3.1,5.5 2.8,5.7 2.4,5.9 2,6 1.7,6.1 1.3,6.2 1,6.3 0.6,6.3 0.1,6.3 -0.2,6.4 -0.6,6.3 -0.9,6.3 -1.4,6.2 -1.7,6.1 -2.1,6 -2.4,5.9 -2.8,5.7 -3.1,5.5 -3.5,5.3 -3.8,5.1 -4.1,4.9 -4.3,4.6 -4.7,4.3 -4.9,4.1 -5.1,3.7 -5.3,3.4 m 0,0 h -108 m 187.2,-90 -0.2,1.9 -0.6,1.8 -0.9,1.6 -1.3,1.4 -1.5,1.2 -1.7,0.7 -1.9,0.4 h -1.9 l -1.8,-0.4 -1.7,-0.7 -1.6,-1.2 -1.2,-1.4 -1,-1.6 -0.6,-1.8 -0.2,-1.9 0.2,-1.8 0.6,-1.8 1,-1.7 1.2,-1.4 1.6,-1.1 1.7,-0.8 1.8,-0.4 h 1.9 l 1.9,0.4 1.7,0.8 1.5,1.1 1.3,1.4 0.9,1.7 0.6,1.8 0.2,1.8 m -36.4,-87.8 -0.2,1.9 -0.5,1.8 -1,1.6 -1.3,1.4 -1.5,1.1 -1.7,0.8 -1.9,0.4 h -1.8 l -1.9,-0.4 -1.7,-0.8 -1.5,-1.1 -1.3,-1.4 -1,-1.6 -0.5,-1.8 -0.2,-1.9 0.2,-1.9 0.5,-1.8 1,-1.6 1.3,-1.4 1.5,-1.1 1.7,-0.8 1.9,-0.4 h 1.8 l 1.9,0.4 1.7,0.8 1.5,1.1 1.3,1.4 1,1.6 0.5,1.8 0.2,1.9 m -87.8,-36.4 -0.2,1.9 -0.6,1.8 -0.9,1.6 -1.3,1.4 -1.5,1.2 -1.7,0.7 -1.9,0.4 h -1.9 l -1.8,-0.4 -1.7,-0.7 -1.6,-1.2 -1.2,-1.4 -1,-1.6 -0.6,-1.8 -0.2,-1.9 0.2,-1.8 0.6,-1.8 1,-1.7 1.2,-1.4 1.6,-1.1 1.7,-0.8 1.8,-0.4 h 1.9 l 1.9,0.4 1.7,0.8 1.5,1.1 1.3,1.4 0.9,1.7 0.6,1.8 0.2,1.8 m -87.8,36.4 -0.2,1.9 -0.6,1.8 -0.9,1.6 -1.3,1.4 -1.5,1.1 -1.8,0.8 -1.8,0.4 h -1.9 l -1.8,-0.4 -1.8,-0.8 -1.5,-1.1 -1.3,-1.4 -0.9,-1.6 -0.6,-1.8 -0.2,-1.9 0.2,-1.9 0.6,-1.8 0.9,-1.6 1.3,-1.4 1.5,-1.1 1.8,-0.8 1.8,-0.4 h 1.9 l 1.8,0.4 1.8,0.8 1.5,1.1 1.3,1.4 0.9,1.6 0.6,1.8 0.2,1.9 m -36.4,87.8 -0.2,1.9 -0.6,1.8 -0.9,1.6 -1.3,1.4 -1.5,1.2 -1.7,0.7 -1.9,0.4 h -1.9 l -1.8,-0.4 -1.7,-0.7 -1.6,-1.2 -1.2,-1.4 -1,-1.6 -0.6,-1.8 -0.2,-1.9 0.2,-1.8 0.6,-1.8 1,-1.7 1.2,-1.4 1.6,-1.1 1.7,-0.8 1.8,-0.4 h 1.9 l 1.9,0.4 1.7,0.8 1.5,1.1 1.3,1.4 0.9,1.7 0.6,1.8 0.2,1.8 m 140.8,115.9 -0.2,1.1 -0.5,0.9 -0.9,0.7 -1,0.4 h -1.1 l -1,-0.4 -0.8,-0.7 -0.6,-0.9 -0.2,-1.1 0.2,-1.1 0.6,-0.9 0.8,-0.7 1,-0.4 h 1.1 l 1,0.4 0.9,0.7 0.5,0.9 0.2,1.1 m -45,0 -0.2,1.1 -0.5,0.9 -0.9,0.7 -1,0.4 h -1.1 l -1,-0.4 -0.8,-0.7 -0.6,-0.9 -0.2,-1.1 0.2,-1.1 0.6,-0.9 0.8,-0.7 1,-0.4 h 1.1 l 1,0.4 0.9,0.7 0.5,0.9 0.2,1.1 m 167.4,-310.3 h 46.4 M -14,40 V 0 M 26,40 H -14 M 374.8,-86.4 v 43.2 M 242,-348.8 h 43.2 m -129.6,0 h 43.2 m -129.6,0 h 43.2 m -126.4,0 h 40 m -40,219.2 v -43.2 m 0,-43.2 v -43.2 m 0,-43.2 v -46.4 m 0,305.6 V -86.4 M 374.8,40 h -46.4 m -43.2,0 H 242 m -43.2,0 h -43.2 m -43.2,0 H 69.2 M 374.8,0 v 40 m 0,-212.8 v 43.2 m 0,-129.6 v 43.2 m 0,-132.8 v 46.4"
         style="fill:none;stroke:#0000ff;stroke-width:0.072;stroke-linecap:round;stroke-linejoin:round;stroke-miterlimit:4;stroke-dasharray:none;stroke-opacity:1"
         id="path839"
         inkscape:connector-curvature="0" />
    </g>
    <g
       style="fill:none;stroke:#0000ff;stroke-width:0.072;stroke-miterlimit:4;stroke-dasharray:none;stroke-opacity:1"
       id="g841"
       transform="matrix(0.35277777,0,0,-0.35277777,251.10307,147.61819)">
      <path
         d="M 0,0 -0.1,0.8 -0.4,1.5 -0.9,2.2 -1.5,2.7 -2.2,3 -3,3.1 H -3.8 L -4.5,2.8 -5.2,2.4 -5.7,1.8 -6.1,1.2 -6.3,0.4 v -0.8 l 0.2,-0.7 0.4,-0.7 0.5,-0.6 0.7,-0.4 0.7,-0.3 H -3 l 0.8,0.1 0.7,0.4 0.6,0.5 0.5,0.6 0.3,0.7 L 0,0 M 45,0 44.9,0.8 44.6,1.5 44.1,2.2 43.5,2.7 42.8,3 42,3.1 H 41.2 L 40.5,2.8 39.8,2.4 39.3,1.8 38.9,1.2 38.7,0.4 v -0.8 l 0.2,-0.7 0.4,-0.7 0.5,-0.6 0.7,-0.4 0.7,-0.3 H 42 l 0.8,0.1 0.7,0.4 0.6,0.5 0.5,0.6 0.3,0.7 L 45,0 m 28.3,16.9 h -108 m 0,0 -3.8,-2.4 -3.8,-2.6 -3.6,-2.8 -3.5,-2.9 -3.4,-3 -3.2,-3.2 -3.1,-3.4 -3,-3.4 -2.8,-3.6 -2.6,-3.7 -2.5,-3.8 -2.3,-4 -2.1,-4 -2,-4.1 -1.7,-4.2 -1.6,-4.2 -1.5,-4.4 -1.2,-4.3 -1,-4.5 -0.8,-4.5 -0.7,-4.5 -0.4,-4.5 -0.3,-4.5 v -4.6 l 0.1,-4.5 0.4,-4.6 0.5,-4.5 0.7,-4.5 1,-4.4 1.1,-4.4 1.3,-4.4 1.5,-4.3 1.7,-4.2 1.8,-4.2 2.1,-4 2.2,-4 2.4,-3.9 2.5,-3.7 2.7,-3.7 2.9,-3.5 3,-3.4 3.2,-3.3 3.3,-3.1 3.4,-3 3.6,-2.9 3.7,-2.6 3.8,-2.5 3.8,-2.4 4,-2.2 4.1,-2 4.2,-1.8 4.2,-1.6 4.4,-1.5 4.3,-1.2 4.4,-1.1 4.5,-0.9 4.5,-0.7 4.5,-0.5 4.6,-0.3 4.5,-0.1 4.6,0.1 4.5,0.3 4.5,0.5 4.5,0.7 4.5,0.9 4.4,1.1 4.4,1.2 4.3,1.5 4.2,1.6 4.2,1.8 4.1,2 4,2.2 3.9,2.4 3.8,2.5 3.7,2.6 3.5,2.9 3.5,3 3.3,3.1 3.1,3.3 3,3.4 2.9,3.5 2.7,3.7 2.6,3.7 2.4,3.9 2.2,4 2,4 1.9,4.2 1.7,4.2 1.5,4.3 1.3,4.4 1.1,4.4 0.9,4.4 0.7,4.5 0.6,4.5 0.3,4.6 0.2,4.5 -0.1,4.6 -0.2,4.5 -0.5,4.5 -0.6,4.5 -0.9,4.5 -1,4.5 -1.2,4.3 -1.4,4.4 -1.6,4.2 -1.8,4.2 -2,4.1 -2.1,4 -2.3,4 -2.5,3.8 -2.6,3.7 -2.8,3.6 -3,3.4 -3,3.4 -3.3,3.2 -3.4,3 -3.5,2.9 -3.6,2.8 -3.7,2.6 -3.9,2.4"
         style="fill:none;stroke:#0000ff;stroke-width:0.072;stroke-linecap:round;stroke-linejoin:round;stroke-miterlimit:4;stroke-dasharray:none;stroke-opacity:1"
         id="path843"
         inkscape:connector-curvature="0" />
    </g>
  </g>
</svg>
