<?xml version="1.0" encoding="UTF-8" standalone="no"?>
<!-- Created with Inkscape (http://www.inkscape.org/) -->

<svg
   xmlns:dc="http://purl.org/dc/elements/1.1/"
   xmlns:cc="http://creativecommons.org/ns#"
   xmlns:rdf="http://www.w3.org/1999/02/22-rdf-syntax-ns#"
   xmlns:svg="http://www.w3.org/2000/svg"
   xmlns="http://www.w3.org/2000/svg"
   xmlns:sodipodi="http://sodipodi.sourceforge.net/DTD/sodipodi-0.dtd"
   xmlns:inkscape="http://www.inkscape.org/namespaces/inkscape"
   width="210mm"
   height="297mm"
   viewBox="0 0 210 297"
   version="1.1"
   id="svg8"
   inkscape:version="0.92.3 (2405546, 2018-03-11)"
   sodipodi:docname="useless_machine_servo_secure.svg">
  <defs
     id="defs2" />
  <sodipodi:namedview
     id="base"
     pagecolor="#ffffff"
     bordercolor="#666666"
     borderopacity="1.0"
     inkscape:pageopacity="0.0"
     inkscape:pageshadow="2"
     inkscape:zoom="0.98994949"
     inkscape:cx="544.29532"
     inkscape:cy="496.00661"
     inkscape:document-units="mm"
     inkscape:current-layer="layer1"
     showgrid="false"
     inkscape:window-width="2560"
     inkscape:window-height="1395"
     inkscape:window-x="-13"
     inkscape:window-y="-13"
     inkscape:window-maximized="1" />
  <metadata
     id="metadata5">
    <rdf:RDF>
      <cc:Work
         rdf:about="">
        <dc:format>image/svg+xml</dc:format>
        <dc:type
           rdf:resource="http://purl.org/dc/dcmitype/StillImage" />
        <dc:title></dc:title>
      </cc:Work>
    </rdf:RDF>
  </metadata>
  <g
     inkscape:label="Layer 1"
     inkscape:groupmode="layer"
     id="layer1">
    <g
       id="g853"
       transform="matrix(0.35277777,0,0,-0.35277777,107.36877,133.62394)"
       style="fill:none;stroke:#0000fc;stroke-opacity:1;stroke-width:0.072;stroke-miterlimit:4;stroke-dasharray:none">
      <path
         d="M 0,0 V 1.7 M 0,0 V -0.2 L 0.1,-0.5 0.2,-0.7 0.4,-1 0.6,-1.1 0.8,-1.3 h 0.3 l 0.3,-0.1 m 113.4,0 H 1.4 m 113.4,0 0.2,0.1 h 0.3 l 0.3,0.2 0.2,0.1 0.1,0.3 0.2,0.2 0.1,0.3 V 0 m 0,1.7 V 0 m 0,1.7 v 0.1 0.1 h 0.1 m 18.7,0 h -18.7 m 18.7,0 h 0.1 l 0.1,0.1 m 0,7.4 V 2 m 0,7.4 v 0 l -0.1,0.1 h -0.1 -0.1 m 0,7.2 -1,1.1 -1.3,0.7 -1.4,0.4 -1.5,0.1 -1.4,-0.3 -1.3,-0.6 -1.2,-1 -0.8,-1.2 -0.6,-1.4 -0.2,-1.4 0.2,-1.5 0.6,-1.4 0.8,-1.2 1.2,-0.9 1.3,-0.7 1.4,-0.3 1.5,0.1 1.4,0.4 1.3,0.8 1,1.1 m 0,7.2 h 0.1 v -0.1 l 0.1,0.1 h 0.1 v 0.1 m 0,20.4 V 16.8 m 0,20.4 v 0 h -0.1 v 0.1 H 135 l -0.1,-0.1 m 0,7.3 -1,1 -1.3,0.8 -1.4,0.4 -1.5,0.1 -1.4,-0.3 -1.3,-0.6 -1.2,-1 -0.8,-1.2 -0.6,-1.4 -0.2,-1.4 0.2,-1.5 0.6,-1.4 0.8,-1.2 1.2,-0.9 1.3,-0.7 1.4,-0.3 1.5,0.1 1.4,0.4 1.3,0.8 1,1 m 0,7.3 h 0.1 v -0.1 h 0.1 v 0.1 h 0.1 v 0.1 m 0,7.3 v -7.3 m 0,7.3 v 0 0.1 h -0.1 v 0.1 H 135 m -18.7,0 H 135 m -18.7,0 v 0 h -0.1 v 0.1 m 0,1.7 v -1.7 m 0,1.7 v 0.3 l -0.1,0.2 -0.2,0.3 -0.1,0.2 -0.2,0.2 -0.3,0.1 -0.3,0.1 h -0.2 M 1.4,55.3 H 114.8 M 1.4,55.3 H 1.1 L 0.8,55.2 0.6,55.1 0.4,54.9 0.2,54.7 0.1,54.4 0,54.2 v -0.3 m 0,-1.7 v 1.7 m 0,-1.7 v 0 l -0.1,-0.1 h -0.1 m 0,0 h -18.7 m 0,0 v 0 V 52 H -19 v -0.1 m 0,0 v -7.3 m 0,0 v -0.1 l 0.1,-0.1 h 0.1 v 0.1 m 0,0 1.1,1 1.2,0.8 1.4,0.4 1.5,0.1 1.5,-0.3 1.3,-0.6 1.1,-1 0.9,-1.2 0.5,-1.4 0.2,-1.4 -0.2,-1.5 -0.5,-1.4 -0.9,-1.2 -1.1,-0.9 -1.3,-0.7 -1.5,-0.3 -1.5,0.1 -1.4,0.4 -1.2,0.8 -1.1,1 m 0,0 v 0.1 h -0.1 -0.1 v -0.1 m 0,0 V 16.8 m 0,0 v -0.1 h 0.1 v -0.1 l 0.1,0.1 m 0,0 1.1,1.1 1.2,0.7 1.4,0.4 1.5,0.1 1.5,-0.3 1.3,-0.6 1.1,-1 0.9,-1.2 0.5,-1.4 0.2,-1.4 -0.2,-1.5 -0.5,-1.4 -0.9,-1.2 -1.1,-0.9 -1.3,-0.7 -1.5,-0.3 -1.5,0.1 -1.4,0.4 -1.2,0.8 -1.1,1.1 m 0,0 v 0 H -18.9 -19 V 9.4 m 0,0 V 2 m 0,0 V 2 1.9 h 0.1 m 0,0 h 18.7 m 0,0 v 0 h 0.1 V 1.8 H 0 V 1.7 m -115.4,205.6 h 27 m 0,14.1 v -14.1 m 0,14.1 h 54 m 0,0 v -14.1 m 0,0 h 54 m 0,14.1 v -14.1 m 0,14.1 h 54 m 0,0 v -14.1 m 0,0 h 54 m 0,14.1 v -14.1 m 0,14.1 h 54 m 0,0 v -14.1 m 0,0 h 27 m 0,0 v -63.5 m 14.1,0 h -14.1 m 14.1,0 v -54 m 0,0 h -14.1 m 0,0 V 54 m 14.1,0 h -14.1 m 14.1,0 V 0 m 0,0 h -14.1 m 0,0 v -35.9 m 14.1,0 h -14.1 m 14.1,0 v -54 m 0,0 h -14.1 m 0,0 v -63.4 m 0,0 h -27 m 0,-14.2 v 14.2 m 0,-14.2 h -54 m 0,0 v 14.2 m 0,0 h -54 m 0,-14.2 v 14.2 m 0,-14.2 h -54 m 0,0 v 14.2 m 0,0 h -54 m 0,-14.2 v 14.2 m 0,-14.2 h -54 m 0,0 v 14.2 m 0,0 h -27 m 0,0 V 207.3 M -18.9,2 V 9.4 M -19,2 v 0 h 0.1 M -19,9.4 v 0 h 0.1 m 0,35.2 v 0 H -19 m 0.1,0 v -0.1 h 0.1 m 18.6,7.4 v 0 0.1 0.1 m -18.7,-0.2 h 18.7 m -18.7,0 v 0 0.1 0.1 m 0,-0.2 v 0 H -19 m 0.1,-7.3 v 7.3 M -0.2,2 H -18.9 M -0.2,1.9 V 1.9 2 M -18.9,1.9 v 0 0.1 m 0,14.8 V 37.2 M -19,16.8 v 0 h 0.1 M -19,37.2 v 0 h 0.1 m 0.1,-27.7 v 0 -0.1 h -0.1 m 0.1,7.3 v 0 0.1 h -0.1 m 0,20.4 v 0 h 0.1 m -0.1,0 1.1,-1.1 1.3,-0.8 1.4,-0.4 1.5,-0.1 1.5,0.3 1.4,0.6 1.1,1 0.9,1.3 0.6,1.4 0.1,1.5 -0.1,1.5 -0.6,1.4 -0.9,1.2 -1.1,1 -1.4,0.6 -1.5,0.3 h -1.5 l -1.4,-0.5 -1.3,-0.8 -1.1,-1 m 0,-35.2 1.1,-1.1 1.3,-0.8 1.4,-0.4 1.5,-0.1 1.5,0.3 1.4,0.7 1.1,0.9 0.9,1.3 0.6,1.4 0.1,1.5 -0.1,1.5 -0.6,1.4 -0.9,1.2 -1.1,1 -1.4,0.7 -1.5,0.3 -1.5,-0.1 -1.4,-0.5 -1.3,-0.7 -1.1,-1.1 M -0.2,2 V 2 H -0.1 0 M 0,2 V 2 1.9 1.8 1.7 m -0.2,50.2 v 0 H -0.1 0 m 0,0.3 v 0 -0.1 -0.1 -0.1 m 116.3,0.2 v 0 -0.1 -0.1 m 0,0 v 0 h -0.1 m 0,0 v 0.1 0.1 0.1 m 0.1,-0.3 H 135 m 0,0.2 v 0 V 52 51.9 M 116.3,2 v 0 h -0.1 m 0.1,0 V 2 1.9 M 116.2,1.7 V 1.7 1.8 1.9 2 M 135,2 H 116.3 M 135,2 V 2 1.9 m 0,42.7 -1,1 -1.3,0.8 -1.5,0.5 h -1.5 l -1.5,-0.3 -1.3,-0.6 -1.2,-1 -0.9,-1.2 -0.5,-1.4 -0.2,-1.5 0.2,-1.5 0.5,-1.4 0.9,-1.3 1.2,-1 1.3,-0.6 1.5,-0.3 1.5,0.1 1.5,0.4 1.3,0.8 1,1.1 m -0.1,7.3 v 0 h 0.1 v 0.1 m -0.1,-7.4 v 0 h 0.1 m 0,-27.8 h 0.1 0.1 m -0.2,0 v 0 h -0.1 v 0.1 m 0.1,7.3 -1,1.1 -1.3,0.7 -1.5,0.5 -1.5,0.1 -1.5,-0.3 -1.3,-0.7 -1.2,-1 -0.9,-1.2 -0.5,-1.4 -0.2,-1.5 0.2,-1.5 0.5,-1.4 0.9,-1.3 1.2,-0.9 1.3,-0.7 1.5,-0.3 1.5,0.1 1.5,0.4 1.3,0.8 1,1.1 m 0,7.4 v 0 -0.1 h -0.1 M 135,37.2 V 16.8 m 0.2,20.4 v 0 h -0.1 -0.1 m 0.2,-20.4 v 0 H 135.1 135 M 135,2 h 0.1 0.1 M 135,9.4 V 2 m 0.2,42.6 v 0 h -0.1 -0.1 m 0,7.3 v -7.3 m 0.2,7.3 v 0 h -0.1 -0.1 m -135.2,0 V 2 M 0,2 V 51.9 M 116.3,2 v 49.9 m -0.1,0 V 2"
         style="fill:none;stroke:#0000fc;stroke-width:0.072;stroke-linecap:round;stroke-linejoin:round;stroke-miterlimit:4;stroke-dasharray:none;stroke-opacity:1"
         id="path855"
         inkscape:connector-curvature="0" />
    </g>
  </g>
</svg>
